<?xml version="1.0" encoding="utf-8" standalone="no"?>
<!DOCTYPE svg PUBLIC "-//W3C//DTD SVG 1.1//EN"
  "http://www.w3.org/Graphics/SVG/1.1/DTD/svg11.dtd">
<svg xmlns:xlink="http://www.w3.org/1999/xlink" width="398.560625pt" height="310.86825pt" viewBox="0 0 398.560625 310.86825" xmlns="http://www.w3.org/2000/svg" version="1.1">
 <metadata>
  <rdf:RDF xmlns:dc="http://purl.org/dc/elements/1.1/" xmlns:cc="http://creativecommons.org/ns#" xmlns:rdf="http://www.w3.org/1999/02/22-rdf-syntax-ns#">
   <cc:Work>
    <dc:type rdf:resource="http://purl.org/dc/dcmitype/StillImage"/>
    <dc:date>2023-10-10T17:36:07.964609</dc:date>
    <dc:format>image/svg+xml</dc:format>
    <dc:creator>
     <cc:Agent>
      <dc:title>Matplotlib v3.7.1, https://matplotlib.org/</dc:title>
     </cc:Agent>
    </dc:creator>
   </cc:Work>
  </rdf:RDF>
 </metadata>
 <defs>
  <style type="text/css">*{stroke-linejoin: round; stroke-linecap: butt}</style>
 </defs>
 <g id="figure_1">
  <g id="patch_1">
   <path d="M 0 310.86825 
L 398.560625 310.86825 
L 398.560625 0 
L 0 0 
z
" style="fill: #ffffff"/>
  </g>
  <g id="axes_1">
   <g id="patch_2">
    <path d="M 34.240625 273.312 
L 391.360625 273.312 
L 391.360625 7.2 
L 34.240625 7.2 
z
" style="fill: #ffffff"/>
   </g>
   <g id="PolyCollection_1">
    <defs>
     <path id="m224336b185" d="M 96.044368 -49.65225 
L 61.716882 -49.65225 
L 61.737602 -51.688614 
L 61.979754 -53.724977 
L 62.422239 -55.761341 
L 63.034468 -57.797705 
L 63.778676 -59.834068 
L 64.612772 -61.870432 
L 65.493461 -63.906795 
L 66.379349 -65.943159 
L 67.233741 -67.979523 
L 68.026912 -70.015886 
L 68.737655 -72.05225 
L 69.354019 -74.088614 
L 69.873231 -76.124977 
L 70.300851 -78.161341 
L 70.649303 -80.197705 
L 70.935972 -82.234068 
L 71.181056 -84.270432 
L 71.405405 -86.306795 
L 71.628536 -88.343159 
L 71.866988 -90.379523 
L 72.133125 -92.415886 
L 72.43447 -94.45225 
L 72.773544 -96.488614 
L 73.148196 -98.524977 
L 73.552319 -100.561341 
L 73.976848 -102.597705 
L 74.410911 -104.634068 
L 74.842996 -106.670432 
L 75.262041 -108.706795 
L 75.658332 -110.743159 
L 76.024166 -112.779523 
L 76.354245 -114.815886 
L 76.645797 -116.85225 
L 76.898461 -118.888614 
L 77.113978 -120.924977 
L 77.29574 -122.961341 
L 77.448278 -124.997705 
L 77.576727 -127.034068 
L 77.686332 -129.070432 
L 77.782028 -131.106795 
L 77.86813 -133.143159 
L 77.94812 -135.179523 
L 78.024558 -137.215886 
L 78.099087 -139.25225 
L 78.172513 -141.288614 
L 78.24495 -143.324977 
L 78.315994 -145.361341 
L 78.3849 -147.397705 
L 78.450756 -149.434068 
L 78.512633 -151.470432 
L 78.569697 -153.506795 
L 78.621285 -155.543159 
L 78.666945 -157.579523 
L 78.706444 -159.615886 
L 78.739746 -161.65225 
L 78.766979 -163.688614 
L 78.788387 -165.724977 
L 78.80428 -167.761341 
L 78.814991 -169.797705 
L 78.820841 -171.834068 
L 78.822114 -173.870432 
L 78.819049 -175.906795 
L 78.81184 -177.943159 
L 78.800655 -179.979523 
L 78.785662 -182.015886 
L 78.767054 -184.05225 
L 78.74509 -186.088614 
L 78.720121 -188.124977 
L 78.692617 -190.161341 
L 78.66318 -192.197705 
L 78.632544 -194.234068 
L 78.60156 -196.270432 
L 78.57116 -198.306795 
L 78.542317 -200.343159 
L 78.515975 -202.379523 
L 78.492994 -204.415886 
L 78.474074 -206.45225 
L 78.4597 -208.488614 
L 78.450092 -210.524977 
L 78.445179 -212.561341 
L 78.444594 -214.597705 
L 78.447693 -216.634068 
L 78.453604 -218.670432 
L 78.461297 -220.706795 
L 78.469665 -222.743159 
L 78.477619 -224.779523 
L 78.484183 -226.815886 
L 78.488582 -228.85225 
L 78.490304 -230.888614 
L 78.489151 -232.924977 
L 78.485257 -234.961341 
L 78.479071 -236.997705 
L 78.471322 -239.034068 
L 78.462953 -241.070432 
L 78.455036 -243.106795 
L 78.448682 -245.143159 
L 78.444946 -247.179523 
L 78.444736 -249.215886 
L 78.448747 -251.25225 
L 79.312503 -251.25225 
L 79.312503 -251.25225 
L 79.316514 -249.215886 
L 79.316304 -247.179523 
L 79.312568 -245.143159 
L 79.306214 -243.106795 
L 79.298297 -241.070432 
L 79.289928 -239.034068 
L 79.282179 -236.997705 
L 79.275993 -234.961341 
L 79.272099 -232.924977 
L 79.270946 -230.888614 
L 79.272668 -228.85225 
L 79.277067 -226.815886 
L 79.283631 -224.779523 
L 79.291585 -222.743159 
L 79.299953 -220.706795 
L 79.307646 -218.670432 
L 79.313557 -216.634068 
L 79.316656 -214.597705 
L 79.316071 -212.561341 
L 79.311158 -210.524977 
L 79.30155 -208.488614 
L 79.287176 -206.45225 
L 79.268256 -204.415886 
L 79.245275 -202.379523 
L 79.218933 -200.343159 
L 79.19009 -198.306795 
L 79.15969 -196.270432 
L 79.128706 -194.234068 
L 79.09807 -192.197705 
L 79.068633 -190.161341 
L 79.041129 -188.124977 
L 79.01616 -186.088614 
L 78.994196 -184.05225 
L 78.975588 -182.015886 
L 78.960595 -179.979523 
L 78.94941 -177.943159 
L 78.942201 -175.906795 
L 78.939136 -173.870432 
L 78.940409 -171.834068 
L 78.946259 -169.797705 
L 78.95697 -167.761341 
L 78.972863 -165.724977 
L 78.994271 -163.688614 
L 79.021504 -161.65225 
L 79.054806 -159.615886 
L 79.094305 -157.579523 
L 79.139965 -155.543159 
L 79.191553 -153.506795 
L 79.248617 -151.470432 
L 79.310494 -149.434068 
L 79.37635 -147.397705 
L 79.445256 -145.361341 
L 79.5163 -143.324977 
L 79.588737 -141.288614 
L 79.662163 -139.25225 
L 79.736692 -137.215886 
L 79.81313 -135.179523 
L 79.89312 -133.143159 
L 79.979222 -131.106795 
L 80.074918 -129.070432 
L 80.184523 -127.034068 
L 80.312972 -124.997705 
L 80.46551 -122.961341 
L 80.647272 -120.924977 
L 80.862789 -118.888614 
L 81.115453 -116.85225 
L 81.407005 -114.815886 
L 81.737084 -112.779523 
L 82.102918 -110.743159 
L 82.499209 -108.706795 
L 82.918254 -106.670432 
L 83.350339 -104.634068 
L 83.784402 -102.597705 
L 84.208931 -100.561341 
L 84.613054 -98.524977 
L 84.987706 -96.488614 
L 85.32678 -94.45225 
L 85.628125 -92.415886 
L 85.894262 -90.379523 
L 86.132714 -88.343159 
L 86.355845 -86.306795 
L 86.580194 -84.270432 
L 86.825278 -82.234068 
L 87.111947 -80.197705 
L 87.460399 -78.161341 
L 87.888019 -76.124977 
L 88.407231 -74.088614 
L 89.023595 -72.05225 
L 89.734338 -70.015886 
L 90.527509 -67.979523 
L 91.381901 -65.943159 
L 92.267789 -63.906795 
L 93.148478 -61.870432 
L 93.982574 -59.834068 
L 94.726782 -57.797705 
L 95.339011 -55.761341 
L 95.781496 -53.724977 
L 96.023648 -51.688614 
L 96.044368 -49.65225 
z
" style="stroke: #3d3d3d; stroke-width: 1.5"/>
    </defs>
    <g clip-path="url(#ped31828bac)">
     <use xlink:href="#m224336b185" x="0" y="310.86825" style="fill: #3274a1; stroke: #3d3d3d; stroke-width: 1.5"/>
    </g>
   </g>
   <g id="PolyCollection_2">
    <defs>
     <path id="ma0bc0eec03" d="M 203.872625 -49.65225 
L 132.448625 -49.65225 
L 132.945722 -51.281341 
L 134.396708 -52.910432 
L 136.682857 -54.539523 
L 139.624083 -56.168614 
L 143.001919 -57.797705 
L 146.585608 -59.426795 
L 150.156889 -61.055886 
L 153.529863 -62.684977 
L 156.563604 -64.314068 
L 159.166901 -65.943159 
L 161.296005 -67.57225 
L 162.947326 -69.201341 
L 164.147493 -70.830432 
L 164.943052 -72.459523 
L 165.391528 -74.088614 
L 165.554791 -75.717705 
L 165.494883 -77.346795 
L 165.271883 -78.975886 
L 164.943023 -80.604977 
L 164.562215 -82.234068 
L 164.179331 -83.863159 
L 163.83891 -85.49225 
L 163.578291 -87.121341 
L 163.425531 -88.750432 
L 163.397598 -90.379523 
L 163.499372 -92.008614 
L 163.723815 -93.637705 
L 164.053446 -95.266795 
L 164.462956 -96.895886 
L 164.922564 -98.524977 
L 165.401566 -100.154068 
L 165.871557 -101.783159 
L 166.308863 -103.41225 
L 166.695963 -105.041341 
L 167.021883 -106.670432 
L 167.281718 -108.299523 
L 167.475574 -109.928614 
L 167.607273 -111.557705 
L 167.683085 -113.186795 
L 167.710707 -114.815886 
L 167.698563 -116.444977 
L 167.655408 -118.074068 
L 167.590146 -119.703159 
L 167.511722 -121.33225 
L 167.428986 -122.961341 
L 167.350429 -124.590432 
L 167.283785 -126.219523 
L 167.23554 -127.848614 
L 167.210431 -129.477705 
L 167.211049 -131.106795 
L 167.237646 -132.735886 
L 167.288201 -134.364977 
L 167.358758 -135.994068 
L 167.44399 -137.623159 
L 167.537887 -139.25225 
L 167.634461 -140.881341 
L 167.728368 -142.510432 
L 167.815349 -144.139523 
L 167.892464 -145.768614 
L 167.958123 -147.397705 
L 168.011941 -149.026795 
L 168.054479 -150.655886 
L 168.086946 -152.284977 
L 168.110898 -153.914068 
L 168.127993 -155.543159 
L 168.139804 -157.17225 
L 168.147708 -158.801341 
L 168.152833 -160.430432 
L 168.156054 -162.059523 
L 168.158016 -163.688614 
L 168.159172 -165.317705 
L 168.159829 -166.946795 
L 168.160181 -168.575886 
L 168.160343 -170.204977 
L 168.160376 -171.834068 
L 168.160292 -173.463159 
L 168.160069 -175.09225 
L 168.159641 -176.721341 
L 168.158889 -178.350432 
L 168.157629 -179.979523 
L 168.155591 -181.608614 
L 168.152396 -183.237705 
L 168.147546 -184.866795 
L 168.140413 -186.495886 
L 168.130254 -188.124977 
L 168.116252 -189.754068 
L 168.09759 -191.383159 
L 168.073561 -193.01225 
L 168.0437 -194.641341 
L 168.007947 -196.270432 
L 167.966783 -197.899523 
L 167.921336 -199.528614 
L 167.873414 -201.157705 
L 167.825441 -202.786795 
L 167.780288 -204.415886 
L 167.741004 -206.044977 
L 167.710484 -207.674068 
L 167.691116 -209.303159 
L 167.684477 -210.93225 
L 168.636773 -210.93225 
L 168.636773 -210.93225 
L 168.630134 -209.303159 
L 168.610766 -207.674068 
L 168.580246 -206.044977 
L 168.540962 -204.415886 
L 168.495809 -202.786795 
L 168.447836 -201.157705 
L 168.399914 -199.528614 
L 168.354467 -197.899523 
L 168.313303 -196.270432 
L 168.27755 -194.641341 
L 168.247689 -193.01225 
L 168.22366 -191.383159 
L 168.204998 -189.754068 
L 168.190996 -188.124977 
L 168.180837 -186.495886 
L 168.173704 -184.866795 
L 168.168854 -183.237705 
L 168.165659 -181.608614 
L 168.163621 -179.979523 
L 168.162361 -178.350432 
L 168.161609 -176.721341 
L 168.161181 -175.09225 
L 168.160958 -173.463159 
L 168.160874 -171.834068 
L 168.160907 -170.204977 
L 168.161069 -168.575886 
L 168.161421 -166.946795 
L 168.162078 -165.317705 
L 168.163234 -163.688614 
L 168.165196 -162.059523 
L 168.168417 -160.430432 
L 168.173542 -158.801341 
L 168.181446 -157.17225 
L 168.193257 -155.543159 
L 168.210352 -153.914068 
L 168.234304 -152.284977 
L 168.266771 -150.655886 
L 168.309309 -149.026795 
L 168.363127 -147.397705 
L 168.428786 -145.768614 
L 168.505901 -144.139523 
L 168.592882 -142.510432 
L 168.686789 -140.881341 
L 168.783363 -139.25225 
L 168.87726 -137.623159 
L 168.962492 -135.994068 
L 169.033049 -134.364977 
L 169.083604 -132.735886 
L 169.110201 -131.106795 
L 169.110819 -129.477705 
L 169.08571 -127.848614 
L 169.037465 -126.219523 
L 168.970821 -124.590432 
L 168.892264 -122.961341 
L 168.809528 -121.33225 
L 168.731104 -119.703159 
L 168.665842 -118.074068 
L 168.622687 -116.444977 
L 168.610543 -114.815886 
L 168.638165 -113.186795 
L 168.713977 -111.557705 
L 168.845676 -109.928614 
L 169.039532 -108.299523 
L 169.299367 -106.670432 
L 169.625287 -105.041341 
L 170.012387 -103.41225 
L 170.449693 -101.783159 
L 170.919684 -100.154068 
L 171.398686 -98.524977 
L 171.858294 -96.895886 
L 172.267804 -95.266795 
L 172.597435 -93.637705 
L 172.821878 -92.008614 
L 172.923652 -90.379523 
L 172.895719 -88.750432 
L 172.742959 -87.121341 
L 172.48234 -85.49225 
L 172.141919 -83.863159 
L 171.759035 -82.234068 
L 171.378227 -80.604977 
L 171.049367 -78.975886 
L 170.826367 -77.346795 
L 170.766459 -75.717705 
L 170.929722 -74.088614 
L 171.378198 -72.459523 
L 172.173757 -70.830432 
L 173.373924 -69.201341 
L 175.025245 -67.57225 
L 177.154349 -65.943159 
L 179.757646 -64.314068 
L 182.791387 -62.684977 
L 186.164361 -61.055886 
L 189.735642 -59.426795 
L 193.319331 -57.797705 
L 196.697167 -56.168614 
L 199.638393 -54.539523 
L 201.924542 -52.910432 
L 203.375528 -51.281341 
L 203.872625 -49.65225 
z
" style="stroke: #3d3d3d; stroke-width: 1.5"/>
    </defs>
    <g clip-path="url(#ped31828bac)">
     <use xlink:href="#ma0bc0eec03" x="0" y="310.86825" style="fill: #e1812c; stroke: #3d3d3d; stroke-width: 1.5"/>
    </g>
   </g>
   <g id="PolyCollection_3">
    <defs>
     <path id="m01ae35792e" d="M 260.11419 -49.65225 
L 254.76706 -49.65225 
L 254.761564 -52.095886 
L 254.758692 -54.539523 
L 254.758393 -56.983159 
L 254.760603 -59.426795 
L 254.765244 -61.870432 
L 254.772227 -64.314068 
L 254.781452 -66.757705 
L 254.792806 -69.201341 
L 254.806166 -71.644977 
L 254.8214 -74.088614 
L 254.838365 -76.53225 
L 254.856911 -78.975886 
L 254.876878 -81.419523 
L 254.8981 -83.863159 
L 254.920407 -86.306795 
L 254.943621 -88.750432 
L 254.967561 -91.194068 
L 254.992043 -93.637705 
L 255.01688 -96.081341 
L 255.041886 -98.524977 
L 255.066873 -100.968614 
L 255.091654 -103.41225 
L 255.116046 -105.855886 
L 255.139868 -108.299523 
L 255.162943 -110.743159 
L 255.185098 -113.186795 
L 255.20617 -115.630432 
L 255.225999 -118.074068 
L 255.244434 -120.517705 
L 255.261335 -122.961341 
L 255.276568 -125.404977 
L 255.290012 -127.848614 
L 255.301556 -130.29225 
L 255.3111 -132.735886 
L 255.318557 -135.179523 
L 255.323852 -137.623159 
L 255.326923 -140.066795 
L 255.327722 -142.510432 
L 255.326214 -144.954068 
L 255.322376 -147.397705 
L 255.316202 -149.841341 
L 255.307697 -152.284977 
L 255.296882 -154.728614 
L 255.28379 -157.17225 
L 255.268468 -159.615886 
L 255.250976 -162.059523 
L 255.231387 -164.503159 
L 255.209787 -166.946795 
L 255.186273 -169.390432 
L 255.160953 -171.834068 
L 255.133947 -174.277705 
L 255.105385 -176.721341 
L 255.075405 -179.164977 
L 255.044157 -181.608614 
L 255.011794 -184.05225 
L 254.978481 -186.495886 
L 254.944387 -188.939523 
L 254.909685 -191.383159 
L 254.874556 -193.826795 
L 254.839181 -196.270432 
L 254.803745 -198.714068 
L 254.768436 -201.157705 
L 254.733441 -203.601341 
L 254.698947 -206.044977 
L 254.66514 -208.488614 
L 254.632204 -210.93225 
L 254.60032 -213.375886 
L 254.569664 -215.819523 
L 254.540409 -218.263159 
L 254.512721 -220.706795 
L 254.48676 -223.150432 
L 254.462679 -225.594068 
L 254.440623 -228.037705 
L 254.420728 -230.481341 
L 254.403121 -232.924977 
L 254.38792 -235.368614 
L 254.375231 -237.81225 
L 254.365151 -240.255886 
L 254.357766 -242.699523 
L 254.35315 -245.143159 
L 254.351364 -247.586795 
L 254.35246 -250.030432 
L 254.356475 -252.474068 
L 254.363437 -254.917705 
L 254.373359 -257.361341 
L 254.386245 -259.804977 
L 254.402085 -262.248614 
L 254.420858 -264.69225 
L 254.442532 -267.135886 
L 254.467064 -269.579523 
L 254.4944 -272.023159 
L 254.524475 -274.466795 
L 254.557217 -276.910432 
L 254.59254 -279.354068 
L 254.630355 -281.797705 
L 254.67056 -284.241341 
L 254.713049 -286.684977 
L 254.757706 -289.128614 
L 254.804411 -291.57225 
L 260.076839 -291.57225 
L 260.076839 -291.57225 
L 260.123544 -289.128614 
L 260.168201 -286.684977 
L 260.21069 -284.241341 
L 260.250895 -281.797705 
L 260.28871 -279.354068 
L 260.324033 -276.910432 
L 260.356775 -274.466795 
L 260.38685 -272.023159 
L 260.414186 -269.579523 
L 260.438718 -267.135886 
L 260.460392 -264.69225 
L 260.479165 -262.248614 
L 260.495005 -259.804977 
L 260.507891 -257.361341 
L 260.517813 -254.917705 
L 260.524775 -252.474068 
L 260.52879 -250.030432 
L 260.529886 -247.586795 
L 260.5281 -245.143159 
L 260.523484 -242.699523 
L 260.516099 -240.255886 
L 260.506019 -237.81225 
L 260.49333 -235.368614 
L 260.478129 -232.924977 
L 260.460522 -230.481341 
L 260.440627 -228.037705 
L 260.418571 -225.594068 
L 260.39449 -223.150432 
L 260.368529 -220.706795 
L 260.340841 -218.263159 
L 260.311586 -215.819523 
L 260.28093 -213.375886 
L 260.249046 -210.93225 
L 260.21611 -208.488614 
L 260.182303 -206.044977 
L 260.147809 -203.601341 
L 260.112814 -201.157705 
L 260.077505 -198.714068 
L 260.042069 -196.270432 
L 260.006694 -193.826795 
L 259.971565 -191.383159 
L 259.936863 -188.939523 
L 259.902769 -186.495886 
L 259.869456 -184.05225 
L 259.837093 -181.608614 
L 259.805845 -179.164977 
L 259.775865 -176.721341 
L 259.747303 -174.277705 
L 259.720297 -171.834068 
L 259.694977 -169.390432 
L 259.671463 -166.946795 
L 259.649863 -164.503159 
L 259.630274 -162.059523 
L 259.612782 -159.615886 
L 259.59746 -157.17225 
L 259.584368 -154.728614 
L 259.573553 -152.284977 
L 259.565048 -149.841341 
L 259.558874 -147.397705 
L 259.555036 -144.954068 
L 259.553528 -142.510432 
L 259.554327 -140.066795 
L 259.557398 -137.623159 
L 259.562693 -135.179523 
L 259.57015 -132.735886 
L 259.579694 -130.29225 
L 259.591238 -127.848614 
L 259.604682 -125.404977 
L 259.619915 -122.961341 
L 259.636816 -120.517705 
L 259.655251 -118.074068 
L 259.67508 -115.630432 
L 259.696152 -113.186795 
L 259.718307 -110.743159 
L 259.741382 -108.299523 
L 259.765204 -105.855886 
L 259.789596 -103.41225 
L 259.814377 -100.968614 
L 259.839364 -98.524977 
L 259.86437 -96.081341 
L 259.889207 -93.637705 
L 259.913689 -91.194068 
L 259.937629 -88.750432 
L 259.960843 -86.306795 
L 259.98315 -83.863159 
L 260.004372 -81.419523 
L 260.024339 -78.975886 
L 260.042885 -76.53225 
L 260.05985 -74.088614 
L 260.075084 -71.644977 
L 260.088444 -69.201341 
L 260.099798 -66.757705 
L 260.109023 -64.314068 
L 260.116006 -61.870432 
L 260.120647 -59.426795 
L 260.122857 -56.983159 
L 260.122558 -54.539523 
L 260.119686 -52.095886 
L 260.11419 -49.65225 
z
" style="stroke: #3d3d3d; stroke-width: 1.5"/>
    </defs>
    <g clip-path="url(#ped31828bac)">
     <use xlink:href="#m01ae35792e" x="0" y="310.86825" style="fill: #3a923a; stroke: #3d3d3d; stroke-width: 1.5"/>
    </g>
   </g>
   <g id="PolyCollection_4">
    <defs>
     <path id="m2e0a6b8be0" d="M 373.136561 -49.65225 
L 320.304689 -49.65225 
L 320.360127 -50.466795 
L 320.533407 -51.281341 
L 320.821932 -52.095886 
L 321.221526 -52.910432 
L 321.726527 -53.724977 
L 322.329898 -54.539523 
L 323.023379 -55.354068 
L 323.797657 -56.168614 
L 324.642553 -56.983159 
L 325.547226 -57.797705 
L 326.500385 -58.61225 
L 327.4905 -59.426795 
L 328.50601 -60.241341 
L 329.535523 -61.055886 
L 330.568007 -61.870432 
L 331.592953 -62.684977 
L 332.600532 -63.499523 
L 333.581718 -64.314068 
L 334.528393 -65.128614 
L 335.433422 -65.943159 
L 336.290715 -66.757705 
L 337.095248 -67.57225 
L 337.843075 -68.386795 
L 338.531318 -69.201341 
L 339.158129 -70.015886 
L 339.72265 -70.830432 
L 340.224948 -71.644977 
L 340.665944 -72.459523 
L 341.047339 -73.274068 
L 341.371523 -74.088614 
L 341.641489 -74.903159 
L 341.860745 -75.717705 
L 342.033219 -76.53225 
L 342.163178 -77.346795 
L 342.255132 -78.161341 
L 342.31376 -78.975886 
L 342.343827 -79.790432 
L 342.35011 -80.604977 
L 342.33733 -81.419523 
L 342.310088 -82.234068 
L 342.272805 -83.048614 
L 342.229671 -83.863159 
L 342.184598 -84.677705 
L 342.141179 -85.49225 
L 342.102652 -86.306795 
L 342.071875 -87.121341 
L 342.051301 -87.935886 
L 342.042964 -88.750432 
L 342.048473 -89.564977 
L 342.069007 -90.379523 
L 342.105323 -91.194068 
L 342.157764 -92.008614 
L 342.226282 -92.823159 
L 342.310454 -93.637705 
L 342.409519 -94.45225 
L 342.522404 -95.266795 
L 342.647763 -96.081341 
L 342.784019 -96.895886 
L 342.929402 -97.710432 
L 343.081996 -98.524977 
L 343.23978 -99.339523 
L 343.400671 -100.154068 
L 343.562568 -100.968614 
L 343.723387 -101.783159 
L 343.881105 -102.597705 
L 344.033788 -103.41225 
L 344.179622 -104.226795 
L 344.316944 -105.041341 
L 344.444259 -105.855886 
L 344.560264 -106.670432 
L 344.663858 -107.484977 
L 344.754153 -108.299523 
L 344.830486 -109.114068 
L 344.892416 -109.928614 
L 344.939727 -110.743159 
L 344.972426 -111.557705 
L 344.990736 -112.37225 
L 344.995088 -113.186795 
L 344.986111 -114.001341 
L 344.964618 -114.815886 
L 344.931592 -115.630432 
L 344.888171 -116.444977 
L 344.835627 -117.259523 
L 344.775346 -118.074068 
L 344.708811 -118.888614 
L 344.637574 -119.703159 
L 344.563236 -120.517705 
L 344.487423 -121.33225 
L 344.411757 -122.146795 
L 344.337838 -122.961341 
L 344.267211 -123.775886 
L 344.201351 -124.590432 
L 344.141633 -125.404977 
L 344.089315 -126.219523 
L 344.045514 -127.034068 
L 344.011197 -127.848614 
L 343.987159 -128.663159 
L 343.974016 -129.477705 
L 343.9722 -130.29225 
L 349.46905 -130.29225 
L 349.46905 -130.29225 
L 349.467234 -129.477705 
L 349.454091 -128.663159 
L 349.430053 -127.848614 
L 349.395736 -127.034068 
L 349.351935 -126.219523 
L 349.299617 -125.404977 
L 349.239899 -124.590432 
L 349.174039 -123.775886 
L 349.103412 -122.961341 
L 349.029493 -122.146795 
L 348.953827 -121.33225 
L 348.878014 -120.517705 
L 348.803676 -119.703159 
L 348.732439 -118.888614 
L 348.665904 -118.074068 
L 348.605623 -117.259523 
L 348.553079 -116.444977 
L 348.509658 -115.630432 
L 348.476632 -114.815886 
L 348.455139 -114.001341 
L 348.446162 -113.186795 
L 348.450514 -112.37225 
L 348.468824 -111.557705 
L 348.501523 -110.743159 
L 348.548834 -109.928614 
L 348.610764 -109.114068 
L 348.687097 -108.299523 
L 348.777392 -107.484977 
L 348.880986 -106.670432 
L 348.996991 -105.855886 
L 349.124306 -105.041341 
L 349.261628 -104.226795 
L 349.407462 -103.41225 
L 349.560145 -102.597705 
L 349.717863 -101.783159 
L 349.878682 -100.968614 
L 350.040579 -100.154068 
L 350.20147 -99.339523 
L 350.359254 -98.524977 
L 350.511848 -97.710432 
L 350.657231 -96.895886 
L 350.793487 -96.081341 
L 350.918846 -95.266795 
L 351.031731 -94.45225 
L 351.130796 -93.637705 
L 351.214968 -92.823159 
L 351.283486 -92.008614 
L 351.335927 -91.194068 
L 351.372243 -90.379523 
L 351.392777 -89.564977 
L 351.398286 -88.750432 
L 351.389949 -87.935886 
L 351.369375 -87.121341 
L 351.338598 -86.306795 
L 351.300071 -85.49225 
L 351.256652 -84.677705 
L 351.211579 -83.863159 
L 351.168445 -83.048614 
L 351.131162 -82.234068 
L 351.10392 -81.419523 
L 351.09114 -80.604977 
L 351.097423 -79.790432 
L 351.12749 -78.975886 
L 351.186118 -78.161341 
L 351.278072 -77.346795 
L 351.408031 -76.53225 
L 351.580505 -75.717705 
L 351.799761 -74.903159 
L 352.069727 -74.088614 
L 352.393911 -73.274068 
L 352.775306 -72.459523 
L 353.216302 -71.644977 
L 353.7186 -70.830432 
L 354.283121 -70.015886 
L 354.909932 -69.201341 
L 355.598175 -68.386795 
L 356.346002 -67.57225 
L 357.150535 -66.757705 
L 358.007828 -65.943159 
L 358.912857 -65.128614 
L 359.859532 -64.314068 
L 360.840718 -63.499523 
L 361.848297 -62.684977 
L 362.873243 -61.870432 
L 363.905727 -61.055886 
L 364.93524 -60.241341 
L 365.95075 -59.426795 
L 366.940865 -58.61225 
L 367.894024 -57.797705 
L 368.798697 -56.983159 
L 369.643593 -56.168614 
L 370.417871 -55.354068 
L 371.111352 -54.539523 
L 371.714723 -53.724977 
L 372.219724 -52.910432 
L 372.619318 -52.095886 
L 372.907843 -51.281341 
L 373.081123 -50.466795 
L 373.136561 -49.65225 
z
" style="stroke: #3d3d3d; stroke-width: 1.5"/>
    </defs>
    <g clip-path="url(#ped31828bac)">
     <use xlink:href="#m2e0a6b8be0" x="0" y="310.86825" style="fill: #c03d3e; stroke: #3d3d3d; stroke-width: 1.5"/>
    </g>
   </g>
   <g id="matplotlib.axis_1">
    <g id="xtick_1">
     <g id="line2d_1">
      <defs>
       <path id="m5b8ae0f329" d="M 0 0 
L 0 3.5 
" style="stroke: #000000; stroke-width: 0.8"/>
      </defs>
      <g>
       <use xlink:href="#m5b8ae0f329" x="78.880625" y="273.312" style="stroke: #000000; stroke-width: 0.8"/>
      </g>
     </g>
     <g id="text_1">
      <!-- xz -->
      <g transform="translate(73.297031 287.910437) scale(0.1 -0.1)">
       <defs>
        <path id="DejaVuSans-78" d="M 3513 3500 
L 2247 1797 
L 3578 0 
L 2900 0 
L 1881 1375 
L 863 0 
L 184 0 
L 1544 1831 
L 300 3500 
L 978 3500 
L 1906 2253 
L 2834 3500 
L 3513 3500 
z
" transform="scale(0.015625)"/>
        <path id="DejaVuSans-7a" d="M 353 3500 
L 3084 3500 
L 3084 2975 
L 922 459 
L 3084 459 
L 3084 0 
L 275 0 
L 275 525 
L 2438 3041 
L 353 3041 
L 353 3500 
z
" transform="scale(0.015625)"/>
       </defs>
       <use xlink:href="#DejaVuSans-78"/>
       <use xlink:href="#DejaVuSans-7a" x="59.179688"/>
      </g>
     </g>
    </g>
    <g id="xtick_2">
     <g id="line2d_2">
      <g>
       <use xlink:href="#m5b8ae0f329" x="168.160625" y="273.312" style="stroke: #000000; stroke-width: 0.8"/>
      </g>
     </g>
     <g id="text_2">
      <!-- gzip -->
      <g transform="translate(157.798906 287.910437) scale(0.1 -0.1)">
       <defs>
        <path id="DejaVuSans-67" d="M 2906 1791 
Q 2906 2416 2648 2759 
Q 2391 3103 1925 3103 
Q 1463 3103 1205 2759 
Q 947 2416 947 1791 
Q 947 1169 1205 825 
Q 1463 481 1925 481 
Q 2391 481 2648 825 
Q 2906 1169 2906 1791 
z
M 3481 434 
Q 3481 -459 3084 -895 
Q 2688 -1331 1869 -1331 
Q 1566 -1331 1297 -1286 
Q 1028 -1241 775 -1147 
L 775 -588 
Q 1028 -725 1275 -790 
Q 1522 -856 1778 -856 
Q 2344 -856 2625 -561 
Q 2906 -266 2906 331 
L 2906 616 
Q 2728 306 2450 153 
Q 2172 0 1784 0 
Q 1141 0 747 490 
Q 353 981 353 1791 
Q 353 2603 747 3093 
Q 1141 3584 1784 3584 
Q 2172 3584 2450 3431 
Q 2728 3278 2906 2969 
L 2906 3500 
L 3481 3500 
L 3481 434 
z
" transform="scale(0.015625)"/>
        <path id="DejaVuSans-69" d="M 603 3500 
L 1178 3500 
L 1178 0 
L 603 0 
L 603 3500 
z
M 603 4863 
L 1178 4863 
L 1178 4134 
L 603 4134 
L 603 4863 
z
" transform="scale(0.015625)"/>
        <path id="DejaVuSans-70" d="M 1159 525 
L 1159 -1331 
L 581 -1331 
L 581 3500 
L 1159 3500 
L 1159 2969 
Q 1341 3281 1617 3432 
Q 1894 3584 2278 3584 
Q 2916 3584 3314 3078 
Q 3713 2572 3713 1747 
Q 3713 922 3314 415 
Q 2916 -91 2278 -91 
Q 1894 -91 1617 61 
Q 1341 213 1159 525 
z
M 3116 1747 
Q 3116 2381 2855 2742 
Q 2594 3103 2138 3103 
Q 1681 3103 1420 2742 
Q 1159 2381 1159 1747 
Q 1159 1113 1420 752 
Q 1681 391 2138 391 
Q 2594 391 2855 752 
Q 3116 1113 3116 1747 
z
" transform="scale(0.015625)"/>
       </defs>
       <use xlink:href="#DejaVuSans-67"/>
       <use xlink:href="#DejaVuSans-7a" x="63.476562"/>
       <use xlink:href="#DejaVuSans-69" x="115.966797"/>
       <use xlink:href="#DejaVuSans-70" x="143.75"/>
      </g>
     </g>
    </g>
    <g id="xtick_3">
     <g id="line2d_3">
      <g>
       <use xlink:href="#m5b8ae0f329" x="257.440625" y="273.312" style="stroke: #000000; stroke-width: 0.8"/>
      </g>
     </g>
     <g id="text_3">
      <!-- bzip2 -->
      <g transform="translate(243.897656 287.910437) scale(0.1 -0.1)">
       <defs>
        <path id="DejaVuSans-62" d="M 3116 1747 
Q 3116 2381 2855 2742 
Q 2594 3103 2138 3103 
Q 1681 3103 1420 2742 
Q 1159 2381 1159 1747 
Q 1159 1113 1420 752 
Q 1681 391 2138 391 
Q 2594 391 2855 752 
Q 3116 1113 3116 1747 
z
M 1159 2969 
Q 1341 3281 1617 3432 
Q 1894 3584 2278 3584 
Q 2916 3584 3314 3078 
Q 3713 2572 3713 1747 
Q 3713 922 3314 415 
Q 2916 -91 2278 -91 
Q 1894 -91 1617 61 
Q 1341 213 1159 525 
L 1159 0 
L 581 0 
L 581 4863 
L 1159 4863 
L 1159 2969 
z
" transform="scale(0.015625)"/>
        <path id="DejaVuSans-32" d="M 1228 531 
L 3431 531 
L 3431 0 
L 469 0 
L 469 531 
Q 828 903 1448 1529 
Q 2069 2156 2228 2338 
Q 2531 2678 2651 2914 
Q 2772 3150 2772 3378 
Q 2772 3750 2511 3984 
Q 2250 4219 1831 4219 
Q 1534 4219 1204 4116 
Q 875 4013 500 3803 
L 500 4441 
Q 881 4594 1212 4672 
Q 1544 4750 1819 4750 
Q 2544 4750 2975 4387 
Q 3406 4025 3406 3419 
Q 3406 3131 3298 2873 
Q 3191 2616 2906 2266 
Q 2828 2175 2409 1742 
Q 1991 1309 1228 531 
z
" transform="scale(0.015625)"/>
       </defs>
       <use xlink:href="#DejaVuSans-62"/>
       <use xlink:href="#DejaVuSans-7a" x="63.476562"/>
       <use xlink:href="#DejaVuSans-69" x="115.966797"/>
       <use xlink:href="#DejaVuSans-70" x="143.75"/>
       <use xlink:href="#DejaVuSans-32" x="207.226562"/>
      </g>
     </g>
    </g>
    <g id="xtick_4">
     <g id="line2d_4">
      <g>
       <use xlink:href="#m5b8ae0f329" x="346.720625" y="273.312" style="stroke: #000000; stroke-width: 0.8"/>
      </g>
     </g>
     <g id="text_4">
      <!-- lrzip -->
      <g transform="translate(336.088594 287.910437) scale(0.1 -0.1)">
       <defs>
        <path id="DejaVuSans-6c" d="M 603 4863 
L 1178 4863 
L 1178 0 
L 603 0 
L 603 4863 
z
" transform="scale(0.015625)"/>
        <path id="DejaVuSans-72" d="M 2631 2963 
Q 2534 3019 2420 3045 
Q 2306 3072 2169 3072 
Q 1681 3072 1420 2755 
Q 1159 2438 1159 1844 
L 1159 0 
L 581 0 
L 581 3500 
L 1159 3500 
L 1159 2956 
Q 1341 3275 1631 3429 
Q 1922 3584 2338 3584 
Q 2397 3584 2469 3576 
Q 2541 3569 2628 3553 
L 2631 2963 
z
" transform="scale(0.015625)"/>
       </defs>
       <use xlink:href="#DejaVuSans-6c"/>
       <use xlink:href="#DejaVuSans-72" x="27.783203"/>
       <use xlink:href="#DejaVuSans-7a" x="68.896484"/>
       <use xlink:href="#DejaVuSans-69" x="121.386719"/>
       <use xlink:href="#DejaVuSans-70" x="149.169922"/>
      </g>
     </g>
    </g>
    <g id="text_5">
     <!-- Projects -->
     <g transform="translate(193.09125 301.588562) scale(0.1 -0.1)">
      <defs>
       <path id="DejaVuSans-50" d="M 1259 4147 
L 1259 2394 
L 2053 2394 
Q 2494 2394 2734 2622 
Q 2975 2850 2975 3272 
Q 2975 3691 2734 3919 
Q 2494 4147 2053 4147 
L 1259 4147 
z
M 628 4666 
L 2053 4666 
Q 2838 4666 3239 4311 
Q 3641 3956 3641 3272 
Q 3641 2581 3239 2228 
Q 2838 1875 2053 1875 
L 1259 1875 
L 1259 0 
L 628 0 
L 628 4666 
z
" transform="scale(0.015625)"/>
       <path id="DejaVuSans-6f" d="M 1959 3097 
Q 1497 3097 1228 2736 
Q 959 2375 959 1747 
Q 959 1119 1226 758 
Q 1494 397 1959 397 
Q 2419 397 2687 759 
Q 2956 1122 2956 1747 
Q 2956 2369 2687 2733 
Q 2419 3097 1959 3097 
z
M 1959 3584 
Q 2709 3584 3137 3096 
Q 3566 2609 3566 1747 
Q 3566 888 3137 398 
Q 2709 -91 1959 -91 
Q 1206 -91 779 398 
Q 353 888 353 1747 
Q 353 2609 779 3096 
Q 1206 3584 1959 3584 
z
" transform="scale(0.015625)"/>
       <path id="DejaVuSans-6a" d="M 603 3500 
L 1178 3500 
L 1178 -63 
Q 1178 -731 923 -1031 
Q 669 -1331 103 -1331 
L -116 -1331 
L -116 -844 
L 38 -844 
Q 366 -844 484 -692 
Q 603 -541 603 -63 
L 603 3500 
z
M 603 4863 
L 1178 4863 
L 1178 4134 
L 603 4134 
L 603 4863 
z
" transform="scale(0.015625)"/>
       <path id="DejaVuSans-65" d="M 3597 1894 
L 3597 1613 
L 953 1613 
Q 991 1019 1311 708 
Q 1631 397 2203 397 
Q 2534 397 2845 478 
Q 3156 559 3463 722 
L 3463 178 
Q 3153 47 2828 -22 
Q 2503 -91 2169 -91 
Q 1331 -91 842 396 
Q 353 884 353 1716 
Q 353 2575 817 3079 
Q 1281 3584 2069 3584 
Q 2775 3584 3186 3129 
Q 3597 2675 3597 1894 
z
M 3022 2063 
Q 3016 2534 2758 2815 
Q 2500 3097 2075 3097 
Q 1594 3097 1305 2825 
Q 1016 2553 972 2059 
L 3022 2063 
z
" transform="scale(0.015625)"/>
       <path id="DejaVuSans-63" d="M 3122 3366 
L 3122 2828 
Q 2878 2963 2633 3030 
Q 2388 3097 2138 3097 
Q 1578 3097 1268 2742 
Q 959 2388 959 1747 
Q 959 1106 1268 751 
Q 1578 397 2138 397 
Q 2388 397 2633 464 
Q 2878 531 3122 666 
L 3122 134 
Q 2881 22 2623 -34 
Q 2366 -91 2075 -91 
Q 1284 -91 818 406 
Q 353 903 353 1747 
Q 353 2603 823 3093 
Q 1294 3584 2113 3584 
Q 2378 3584 2631 3529 
Q 2884 3475 3122 3366 
z
" transform="scale(0.015625)"/>
       <path id="DejaVuSans-74" d="M 1172 4494 
L 1172 3500 
L 2356 3500 
L 2356 3053 
L 1172 3053 
L 1172 1153 
Q 1172 725 1289 603 
Q 1406 481 1766 481 
L 2356 481 
L 2356 0 
L 1766 0 
Q 1100 0 847 248 
Q 594 497 594 1153 
L 594 3053 
L 172 3053 
L 172 3500 
L 594 3500 
L 594 4494 
L 1172 4494 
z
" transform="scale(0.015625)"/>
       <path id="DejaVuSans-73" d="M 2834 3397 
L 2834 2853 
Q 2591 2978 2328 3040 
Q 2066 3103 1784 3103 
Q 1356 3103 1142 2972 
Q 928 2841 928 2578 
Q 928 2378 1081 2264 
Q 1234 2150 1697 2047 
L 1894 2003 
Q 2506 1872 2764 1633 
Q 3022 1394 3022 966 
Q 3022 478 2636 193 
Q 2250 -91 1575 -91 
Q 1294 -91 989 -36 
Q 684 19 347 128 
L 347 722 
Q 666 556 975 473 
Q 1284 391 1588 391 
Q 1994 391 2212 530 
Q 2431 669 2431 922 
Q 2431 1156 2273 1281 
Q 2116 1406 1581 1522 
L 1381 1569 
Q 847 1681 609 1914 
Q 372 2147 372 2553 
Q 372 3047 722 3315 
Q 1072 3584 1716 3584 
Q 2034 3584 2315 3537 
Q 2597 3491 2834 3397 
z
" transform="scale(0.015625)"/>
      </defs>
      <use xlink:href="#DejaVuSans-50"/>
      <use xlink:href="#DejaVuSans-72" x="58.552734"/>
      <use xlink:href="#DejaVuSans-6f" x="97.416016"/>
      <use xlink:href="#DejaVuSans-6a" x="158.597656"/>
      <use xlink:href="#DejaVuSans-65" x="186.380859"/>
      <use xlink:href="#DejaVuSans-63" x="247.904297"/>
      <use xlink:href="#DejaVuSans-74" x="302.884766"/>
      <use xlink:href="#DejaVuSans-73" x="342.09375"/>
     </g>
    </g>
   </g>
   <g id="matplotlib.axis_2">
    <g id="ytick_1">
     <g id="line2d_5">
      <defs>
       <path id="m246193f994" d="M 0 0 
L -3.5 0 
" style="stroke: #000000; stroke-width: 0.8"/>
      </defs>
      <g>
       <use xlink:href="#m246193f994" x="34.240625" y="261.216" style="stroke: #000000; stroke-width: 0.8"/>
      </g>
     </g>
     <g id="text_6">
      <!-- 1 -->
      <g transform="translate(20.878125 265.015219) scale(0.1 -0.1)">
       <defs>
        <path id="DejaVuSans-31" d="M 794 531 
L 1825 531 
L 1825 4091 
L 703 3866 
L 703 4441 
L 1819 4666 
L 2450 4666 
L 2450 531 
L 3481 531 
L 3481 0 
L 794 0 
L 794 531 
z
" transform="scale(0.015625)"/>
       </defs>
       <use xlink:href="#DejaVuSans-31"/>
      </g>
     </g>
    </g>
    <g id="ytick_2">
     <g id="line2d_6">
      <g>
       <use xlink:href="#m246193f994" x="34.240625" y="220.896" style="stroke: #000000; stroke-width: 0.8"/>
      </g>
     </g>
     <g id="text_7">
      <!-- 2 -->
      <g transform="translate(20.878125 224.695219) scale(0.1 -0.1)">
       <use xlink:href="#DejaVuSans-32"/>
      </g>
     </g>
    </g>
    <g id="ytick_3">
     <g id="line2d_7">
      <g>
       <use xlink:href="#m246193f994" x="34.240625" y="180.576" style="stroke: #000000; stroke-width: 0.8"/>
      </g>
     </g>
     <g id="text_8">
      <!-- 3 -->
      <g transform="translate(20.878125 184.375219) scale(0.1 -0.1)">
       <defs>
        <path id="DejaVuSans-33" d="M 2597 2516 
Q 3050 2419 3304 2112 
Q 3559 1806 3559 1356 
Q 3559 666 3084 287 
Q 2609 -91 1734 -91 
Q 1441 -91 1130 -33 
Q 819 25 488 141 
L 488 750 
Q 750 597 1062 519 
Q 1375 441 1716 441 
Q 2309 441 2620 675 
Q 2931 909 2931 1356 
Q 2931 1769 2642 2001 
Q 2353 2234 1838 2234 
L 1294 2234 
L 1294 2753 
L 1863 2753 
Q 2328 2753 2575 2939 
Q 2822 3125 2822 3475 
Q 2822 3834 2567 4026 
Q 2313 4219 1838 4219 
Q 1578 4219 1281 4162 
Q 984 4106 628 3988 
L 628 4550 
Q 988 4650 1302 4700 
Q 1616 4750 1894 4750 
Q 2613 4750 3031 4423 
Q 3450 4097 3450 3541 
Q 3450 3153 3228 2886 
Q 3006 2619 2597 2516 
z
" transform="scale(0.015625)"/>
       </defs>
       <use xlink:href="#DejaVuSans-33"/>
      </g>
     </g>
    </g>
    <g id="ytick_4">
     <g id="line2d_8">
      <g>
       <use xlink:href="#m246193f994" x="34.240625" y="140.256" style="stroke: #000000; stroke-width: 0.8"/>
      </g>
     </g>
     <g id="text_9">
      <!-- 4 -->
      <g transform="translate(20.878125 144.055219) scale(0.1 -0.1)">
       <defs>
        <path id="DejaVuSans-34" d="M 2419 4116 
L 825 1625 
L 2419 1625 
L 2419 4116 
z
M 2253 4666 
L 3047 4666 
L 3047 1625 
L 3713 1625 
L 3713 1100 
L 3047 1100 
L 3047 0 
L 2419 0 
L 2419 1100 
L 313 1100 
L 313 1709 
L 2253 4666 
z
" transform="scale(0.015625)"/>
       </defs>
       <use xlink:href="#DejaVuSans-34"/>
      </g>
     </g>
    </g>
    <g id="ytick_5">
     <g id="line2d_9">
      <g>
       <use xlink:href="#m246193f994" x="34.240625" y="99.936" style="stroke: #000000; stroke-width: 0.8"/>
      </g>
     </g>
     <g id="text_10">
      <!-- 5 -->
      <g transform="translate(20.878125 103.735219) scale(0.1 -0.1)">
       <defs>
        <path id="DejaVuSans-35" d="M 691 4666 
L 3169 4666 
L 3169 4134 
L 1269 4134 
L 1269 2991 
Q 1406 3038 1543 3061 
Q 1681 3084 1819 3084 
Q 2600 3084 3056 2656 
Q 3513 2228 3513 1497 
Q 3513 744 3044 326 
Q 2575 -91 1722 -91 
Q 1428 -91 1123 -41 
Q 819 9 494 109 
L 494 744 
Q 775 591 1075 516 
Q 1375 441 1709 441 
Q 2250 441 2565 725 
Q 2881 1009 2881 1497 
Q 2881 1984 2565 2268 
Q 2250 2553 1709 2553 
Q 1456 2553 1204 2497 
Q 953 2441 691 2322 
L 691 4666 
z
" transform="scale(0.015625)"/>
       </defs>
       <use xlink:href="#DejaVuSans-35"/>
      </g>
     </g>
    </g>
    <g id="ytick_6">
     <g id="line2d_10">
      <g>
       <use xlink:href="#m246193f994" x="34.240625" y="59.616" style="stroke: #000000; stroke-width: 0.8"/>
      </g>
     </g>
     <g id="text_11">
      <!-- 6 -->
      <g transform="translate(20.878125 63.415219) scale(0.1 -0.1)">
       <defs>
        <path id="DejaVuSans-36" d="M 2113 2584 
Q 1688 2584 1439 2293 
Q 1191 2003 1191 1497 
Q 1191 994 1439 701 
Q 1688 409 2113 409 
Q 2538 409 2786 701 
Q 3034 994 3034 1497 
Q 3034 2003 2786 2293 
Q 2538 2584 2113 2584 
z
M 3366 4563 
L 3366 3988 
Q 3128 4100 2886 4159 
Q 2644 4219 2406 4219 
Q 1781 4219 1451 3797 
Q 1122 3375 1075 2522 
Q 1259 2794 1537 2939 
Q 1816 3084 2150 3084 
Q 2853 3084 3261 2657 
Q 3669 2231 3669 1497 
Q 3669 778 3244 343 
Q 2819 -91 2113 -91 
Q 1303 -91 875 529 
Q 447 1150 447 2328 
Q 447 3434 972 4092 
Q 1497 4750 2381 4750 
Q 2619 4750 2861 4703 
Q 3103 4656 3366 4563 
z
" transform="scale(0.015625)"/>
       </defs>
       <use xlink:href="#DejaVuSans-36"/>
      </g>
     </g>
    </g>
    <g id="ytick_7">
     <g id="line2d_11">
      <g>
       <use xlink:href="#m246193f994" x="34.240625" y="19.296" style="stroke: #000000; stroke-width: 0.8"/>
      </g>
     </g>
     <g id="text_12">
      <!-- 7 -->
      <g transform="translate(20.878125 23.095219) scale(0.1 -0.1)">
       <defs>
        <path id="DejaVuSans-37" d="M 525 4666 
L 3525 4666 
L 3525 4397 
L 1831 0 
L 1172 0 
L 2766 4134 
L 525 4134 
L 525 4666 
z
" transform="scale(0.015625)"/>
       </defs>
       <use xlink:href="#DejaVuSans-37"/>
      </g>
     </g>
    </g>
    <g id="text_13">
     <!-- Num Interacting Features -->
     <g transform="translate(14.798438 203.94975) rotate(-90) scale(0.1 -0.1)">
      <defs>
       <path id="DejaVuSans-4e" d="M 628 4666 
L 1478 4666 
L 3547 763 
L 3547 4666 
L 4159 4666 
L 4159 0 
L 3309 0 
L 1241 3903 
L 1241 0 
L 628 0 
L 628 4666 
z
" transform="scale(0.015625)"/>
       <path id="DejaVuSans-75" d="M 544 1381 
L 544 3500 
L 1119 3500 
L 1119 1403 
Q 1119 906 1312 657 
Q 1506 409 1894 409 
Q 2359 409 2629 706 
Q 2900 1003 2900 1516 
L 2900 3500 
L 3475 3500 
L 3475 0 
L 2900 0 
L 2900 538 
Q 2691 219 2414 64 
Q 2138 -91 1772 -91 
Q 1169 -91 856 284 
Q 544 659 544 1381 
z
M 1991 3584 
L 1991 3584 
z
" transform="scale(0.015625)"/>
       <path id="DejaVuSans-6d" d="M 3328 2828 
Q 3544 3216 3844 3400 
Q 4144 3584 4550 3584 
Q 5097 3584 5394 3201 
Q 5691 2819 5691 2113 
L 5691 0 
L 5113 0 
L 5113 2094 
Q 5113 2597 4934 2840 
Q 4756 3084 4391 3084 
Q 3944 3084 3684 2787 
Q 3425 2491 3425 1978 
L 3425 0 
L 2847 0 
L 2847 2094 
Q 2847 2600 2669 2842 
Q 2491 3084 2119 3084 
Q 1678 3084 1418 2786 
Q 1159 2488 1159 1978 
L 1159 0 
L 581 0 
L 581 3500 
L 1159 3500 
L 1159 2956 
Q 1356 3278 1631 3431 
Q 1906 3584 2284 3584 
Q 2666 3584 2933 3390 
Q 3200 3197 3328 2828 
z
" transform="scale(0.015625)"/>
       <path id="DejaVuSans-20" transform="scale(0.015625)"/>
       <path id="DejaVuSans-49" d="M 628 4666 
L 1259 4666 
L 1259 0 
L 628 0 
L 628 4666 
z
" transform="scale(0.015625)"/>
       <path id="DejaVuSans-6e" d="M 3513 2113 
L 3513 0 
L 2938 0 
L 2938 2094 
Q 2938 2591 2744 2837 
Q 2550 3084 2163 3084 
Q 1697 3084 1428 2787 
Q 1159 2491 1159 1978 
L 1159 0 
L 581 0 
L 581 3500 
L 1159 3500 
L 1159 2956 
Q 1366 3272 1645 3428 
Q 1925 3584 2291 3584 
Q 2894 3584 3203 3211 
Q 3513 2838 3513 2113 
z
" transform="scale(0.015625)"/>
       <path id="DejaVuSans-61" d="M 2194 1759 
Q 1497 1759 1228 1600 
Q 959 1441 959 1056 
Q 959 750 1161 570 
Q 1363 391 1709 391 
Q 2188 391 2477 730 
Q 2766 1069 2766 1631 
L 2766 1759 
L 2194 1759 
z
M 3341 1997 
L 3341 0 
L 2766 0 
L 2766 531 
Q 2569 213 2275 61 
Q 1981 -91 1556 -91 
Q 1019 -91 701 211 
Q 384 513 384 1019 
Q 384 1609 779 1909 
Q 1175 2209 1959 2209 
L 2766 2209 
L 2766 2266 
Q 2766 2663 2505 2880 
Q 2244 3097 1772 3097 
Q 1472 3097 1187 3025 
Q 903 2953 641 2809 
L 641 3341 
Q 956 3463 1253 3523 
Q 1550 3584 1831 3584 
Q 2591 3584 2966 3190 
Q 3341 2797 3341 1997 
z
" transform="scale(0.015625)"/>
       <path id="DejaVuSans-46" d="M 628 4666 
L 3309 4666 
L 3309 4134 
L 1259 4134 
L 1259 2759 
L 3109 2759 
L 3109 2228 
L 1259 2228 
L 1259 0 
L 628 0 
L 628 4666 
z
" transform="scale(0.015625)"/>
      </defs>
      <use xlink:href="#DejaVuSans-4e"/>
      <use xlink:href="#DejaVuSans-75" x="74.804688"/>
      <use xlink:href="#DejaVuSans-6d" x="138.183594"/>
      <use xlink:href="#DejaVuSans-20" x="235.595703"/>
      <use xlink:href="#DejaVuSans-49" x="267.382812"/>
      <use xlink:href="#DejaVuSans-6e" x="296.875"/>
      <use xlink:href="#DejaVuSans-74" x="360.253906"/>
      <use xlink:href="#DejaVuSans-65" x="399.462891"/>
      <use xlink:href="#DejaVuSans-72" x="460.986328"/>
      <use xlink:href="#DejaVuSans-61" x="502.099609"/>
      <use xlink:href="#DejaVuSans-63" x="563.378906"/>
      <use xlink:href="#DejaVuSans-74" x="618.359375"/>
      <use xlink:href="#DejaVuSans-69" x="657.568359"/>
      <use xlink:href="#DejaVuSans-6e" x="685.351562"/>
      <use xlink:href="#DejaVuSans-67" x="748.730469"/>
      <use xlink:href="#DejaVuSans-20" x="812.207031"/>
      <use xlink:href="#DejaVuSans-46" x="843.994141"/>
      <use xlink:href="#DejaVuSans-65" x="896.013672"/>
      <use xlink:href="#DejaVuSans-61" x="957.537109"/>
      <use xlink:href="#DejaVuSans-74" x="1018.816406"/>
      <use xlink:href="#DejaVuSans-75" x="1058.025391"/>
      <use xlink:href="#DejaVuSans-72" x="1121.404297"/>
      <use xlink:href="#DejaVuSans-65" x="1160.267578"/>
      <use xlink:href="#DejaVuSans-73" x="1221.791016"/>
     </g>
    </g>
   </g>
   <g id="line2d_12">
    <path d="M 78.880625 261.216 
L 78.880625 180.576 
" clip-path="url(#ped31828bac)" style="fill: none; stroke: #3d3d3d; stroke-width: 1.5; stroke-linecap: square"/>
   </g>
   <g id="line2d_13">
    <path d="M 78.880625 261.216 
L 78.880625 220.896 
" clip-path="url(#ped31828bac)" style="fill: none; stroke: #3d3d3d; stroke-width: 4.5; stroke-linecap: square"/>
   </g>
   <g id="line2d_14">
    <path d="M 168.160625 261.216 
L 168.160625 261.216 
" clip-path="url(#ped31828bac)" style="fill: none; stroke: #3d3d3d; stroke-width: 1.5; stroke-linecap: square"/>
   </g>
   <g id="line2d_15">
    <path d="M 168.160625 261.216 
L 168.160625 261.216 
" clip-path="url(#ped31828bac)" style="fill: none; stroke: #3d3d3d; stroke-width: 4.5; stroke-linecap: square"/>
   </g>
   <g id="line2d_16">
    <path d="M 257.440625 261.216 
L 257.440625 19.296 
" clip-path="url(#ped31828bac)" style="fill: none; stroke: #3d3d3d; stroke-width: 1.5; stroke-linecap: square"/>
   </g>
   <g id="line2d_17">
    <path d="M 257.440625 261.216 
L 257.440625 59.616 
" clip-path="url(#ped31828bac)" style="fill: none; stroke: #3d3d3d; stroke-width: 4.5; stroke-linecap: square"/>
   </g>
   <g id="line2d_18">
    <path d="M 346.720625 261.216 
L 346.720625 261.216 
" clip-path="url(#ped31828bac)" style="fill: none; stroke: #3d3d3d; stroke-width: 1.5; stroke-linecap: square"/>
   </g>
   <g id="line2d_19">
    <path d="M 346.720625 261.216 
L 346.720625 261.216 
" clip-path="url(#ped31828bac)" style="fill: none; stroke: #3d3d3d; stroke-width: 4.5; stroke-linecap: square"/>
   </g>
   <g id="patch_3">
    <path d="M 34.240625 273.312 
L 34.240625 7.2 
" style="fill: none; stroke: #000000; stroke-width: 0.8; stroke-linejoin: miter; stroke-linecap: square"/>
   </g>
   <g id="patch_4">
    <path d="M 391.360625 273.312 
L 391.360625 7.2 
" style="fill: none; stroke: #000000; stroke-width: 0.8; stroke-linejoin: miter; stroke-linecap: square"/>
   </g>
   <g id="patch_5">
    <path d="M 34.240625 273.312 
L 391.360625 273.312 
" style="fill: none; stroke: #000000; stroke-width: 0.8; stroke-linejoin: miter; stroke-linecap: square"/>
   </g>
   <g id="patch_6">
    <path d="M 34.240625 7.2 
L 391.360625 7.2 
" style="fill: none; stroke: #000000; stroke-width: 0.8; stroke-linejoin: miter; stroke-linecap: square"/>
   </g>
   <g id="PathCollection_1">
    <defs>
     <path id="m97ba2e5edc" d="M 0 1.5 
C 0.397805 1.5 0.77937 1.341951 1.06066 1.06066 
C 1.341951 0.77937 1.5 0.397805 1.5 0 
C 1.5 -0.397805 1.341951 -0.77937 1.06066 -1.06066 
C 0.77937 -1.341951 0.397805 -1.5 0 -1.5 
C -0.397805 -1.5 -0.77937 -1.341951 -1.06066 -1.06066 
C -1.341951 -0.77937 -1.5 -0.397805 -1.5 0 
C -1.5 0.397805 -1.341951 0.77937 -1.06066 1.06066 
C -0.77937 1.341951 -0.397805 1.5 0 1.5 
z
" style="stroke: #3d3d3d"/>
    </defs>
    <g clip-path="url(#ped31828bac)">
     <use xlink:href="#m97ba2e5edc" x="78.880625" y="261.216" style="fill: #ffffff; stroke: #3d3d3d"/>
    </g>
   </g>
   <g id="PathCollection_2">
    <g clip-path="url(#ped31828bac)">
     <use xlink:href="#m97ba2e5edc" x="168.160625" y="261.216" style="fill: #ffffff; stroke: #3d3d3d"/>
    </g>
   </g>
   <g id="PathCollection_3">
    <g clip-path="url(#ped31828bac)">
     <use xlink:href="#m97ba2e5edc" x="257.440625" y="99.936" style="fill: #ffffff; stroke: #3d3d3d"/>
    </g>
   </g>
   <g id="PathCollection_4">
    <g clip-path="url(#ped31828bac)">
     <use xlink:href="#m97ba2e5edc" x="346.720625" y="261.216" style="fill: #ffffff; stroke: #3d3d3d"/>
    </g>
   </g>
  </g>
 </g>
 <defs>
  <clipPath id="ped31828bac">
   <rect x="34.240625" y="7.2" width="357.12" height="266.112"/>
  </clipPath>
 </defs>
</svg>
