<?xml version="1.0" encoding="utf-8" standalone="no"?>
<!DOCTYPE svg PUBLIC "-//W3C//DTD SVG 1.1//EN"
  "http://www.w3.org/Graphics/SVG/1.1/DTD/svg11.dtd">
<svg xmlns:xlink="http://www.w3.org/1999/xlink" width="1796.427188pt" height="313.483437pt" viewBox="0 0 1796.427188 313.483437" xmlns="http://www.w3.org/2000/svg" version="1.1">
 <metadata>
  <rdf:RDF xmlns:dc="http://purl.org/dc/elements/1.1/" xmlns:cc="http://creativecommons.org/ns#" xmlns:rdf="http://www.w3.org/1999/02/22-rdf-syntax-ns#">
   <cc:Work>
    <dc:type rdf:resource="http://purl.org/dc/dcmitype/StillImage"/>
    <dc:date>2024-01-11T14:48:25.570657</dc:date>
    <dc:format>image/svg+xml</dc:format>
    <dc:creator>
     <cc:Agent>
      <dc:title>Matplotlib v3.8.1, https://matplotlib.org/</dc:title>
     </cc:Agent>
    </dc:creator>
   </cc:Work>
  </rdf:RDF>
 </metadata>
 <defs>
  <style type="text/css">*{stroke-linejoin: round; stroke-linecap: butt}</style>
 </defs>
 <g id="figure_1">
  <g id="patch_1">
   <path d="M 0 313.483437 
L 1796.427188 313.483437 
L 1796.427188 0 
L 0 0 
z
" style="fill: #ffffff"/>
  </g>
  <g id="axes_1">
   <g id="patch_2">
    <path d="M 47.987188 269.636406 
L 422.727187 269.636406 
L 422.727187 30.676406 
L 47.987188 30.676406 
z
" style="fill: #ffffff"/>
   </g>
   <g id="PathCollection_1">
    <defs>
     <path id="m83d1836cdd" d="M 0 3 
C 0.795609 3 1.55874 2.683901 2.12132 2.12132 
C 2.683901 1.55874 3 0.795609 3 0 
C 3 -0.795609 2.683901 -1.55874 2.12132 -2.12132 
C 1.55874 -2.683901 0.795609 -3 0 -3 
C -0.795609 -3 -1.55874 -2.683901 -2.12132 -2.12132 
C -2.683901 -1.55874 -3 -0.795609 -3 0 
C -3 0.795609 -2.683901 1.55874 -2.12132 2.12132 
C -1.55874 2.683901 -0.795609 3 0 3 
z
" style="stroke: #ff7f0e; stroke-opacity: 0.8"/>
    </defs>
    <g clip-path="url(#p999a0be0f6)">
     <use xlink:href="#m83d1836cdd" x="65.020824" y="258.774588" style="fill: #ff7f0e; fill-opacity: 0.8; stroke: #ff7f0e; stroke-opacity: 0.8"/>
     <use xlink:href="#m83d1836cdd" x="78.205411" y="194.190804" style="fill: #ff7f0e; fill-opacity: 0.8; stroke: #ff7f0e; stroke-opacity: 0.8"/>
     <use xlink:href="#m83d1836cdd" x="92.665927" y="211.804563" style="fill: #ff7f0e; fill-opacity: 0.8; stroke: #ff7f0e; stroke-opacity: 0.8"/>
     <use xlink:href="#m83d1836cdd" x="96.068401" y="200.062057" style="fill: #ff7f0e; fill-opacity: 0.8; stroke: #ff7f0e; stroke-opacity: 0.8"/>
     <use xlink:href="#m83d1836cdd" x="99.470875" y="252.903335" style="fill: #ff7f0e; fill-opacity: 0.8; stroke: #ff7f0e; stroke-opacity: 0.8"/>
     <use xlink:href="#m83d1836cdd" x="116.483246" y="208.868937" style="fill: #ff7f0e; fill-opacity: 0.8; stroke: #ff7f0e; stroke-opacity: 0.8"/>
     <use xlink:href="#m83d1836cdd" x="120.736339" y="247.032082" style="fill: #ff7f0e; fill-opacity: 0.8; stroke: #ff7f0e; stroke-opacity: 0.8"/>
     <use xlink:href="#m83d1836cdd" x="156.037008" y="194.190804" style="fill: #ff7f0e; fill-opacity: 0.8; stroke: #ff7f0e; stroke-opacity: 0.8"/>
     <use xlink:href="#m83d1836cdd" x="221.534636" y="238.225202" style="fill: #ff7f0e; fill-opacity: 0.8; stroke: #ff7f0e; stroke-opacity: 0.8"/>
     <use xlink:href="#m83d1836cdd" x="405.693551" y="41.538224" style="fill: #ff7f0e; fill-opacity: 0.8; stroke: #ff7f0e; stroke-opacity: 0.8"/>
    </g>
   </g>
   <g id="matplotlib.axis_1">
    <g id="xtick_1">
     <g id="line2d_1">
      <defs>
       <path id="m345ea90eee" d="M 0 0 
L 0 3.5 
" style="stroke: #000000; stroke-width: 0.8"/>
      </defs>
      <g>
       <use xlink:href="#m345ea90eee" x="62.894278" y="269.636406" style="stroke: #000000; stroke-width: 0.8"/>
      </g>
     </g>
     <g id="text_1">
      <!-- 0 -->
      <g transform="translate(59.23584 285.374609) scale(0.115 -0.115)">
       <defs>
        <path id="DejaVuSans-30" d="M 2034 4250 
Q 1547 4250 1301 3770 
Q 1056 3291 1056 2328 
Q 1056 1369 1301 889 
Q 1547 409 2034 409 
Q 2525 409 2770 889 
Q 3016 1369 3016 2328 
Q 3016 3291 2770 3770 
Q 2525 4250 2034 4250 
z
M 2034 4750 
Q 2819 4750 3233 4129 
Q 3647 3509 3647 2328 
Q 3647 1150 3233 529 
Q 2819 -91 2034 -91 
Q 1250 -91 836 529 
Q 422 1150 422 2328 
Q 422 3509 836 4129 
Q 1250 4750 2034 4750 
z
" transform="scale(0.015625)"/>
       </defs>
       <use xlink:href="#DejaVuSans-30"/>
      </g>
     </g>
    </g>
    <g id="xtick_2">
     <g id="line2d_2">
      <g>
       <use xlink:href="#m345ea90eee" x="105.425205" y="269.636406" style="stroke: #000000; stroke-width: 0.8"/>
      </g>
     </g>
     <g id="text_2">
      <!-- 100 -->
      <g transform="translate(94.449892 285.374609) scale(0.115 -0.115)">
       <defs>
        <path id="DejaVuSans-31" d="M 794 531 
L 1825 531 
L 1825 4091 
L 703 3866 
L 703 4441 
L 1819 4666 
L 2450 4666 
L 2450 531 
L 3481 531 
L 3481 0 
L 794 0 
L 794 531 
z
" transform="scale(0.015625)"/>
       </defs>
       <use xlink:href="#DejaVuSans-31"/>
       <use xlink:href="#DejaVuSans-30" x="63.623047"/>
       <use xlink:href="#DejaVuSans-30" x="127.246094"/>
      </g>
     </g>
    </g>
    <g id="xtick_3">
     <g id="line2d_3">
      <g>
       <use xlink:href="#m345ea90eee" x="147.956132" y="269.636406" style="stroke: #000000; stroke-width: 0.8"/>
      </g>
     </g>
     <g id="text_3">
      <!-- 200 -->
      <g transform="translate(136.98082 285.374609) scale(0.115 -0.115)">
       <defs>
        <path id="DejaVuSans-32" d="M 1228 531 
L 3431 531 
L 3431 0 
L 469 0 
L 469 531 
Q 828 903 1448 1529 
Q 2069 2156 2228 2338 
Q 2531 2678 2651 2914 
Q 2772 3150 2772 3378 
Q 2772 3750 2511 3984 
Q 2250 4219 1831 4219 
Q 1534 4219 1204 4116 
Q 875 4013 500 3803 
L 500 4441 
Q 881 4594 1212 4672 
Q 1544 4750 1819 4750 
Q 2544 4750 2975 4387 
Q 3406 4025 3406 3419 
Q 3406 3131 3298 2873 
Q 3191 2616 2906 2266 
Q 2828 2175 2409 1742 
Q 1991 1309 1228 531 
z
" transform="scale(0.015625)"/>
       </defs>
       <use xlink:href="#DejaVuSans-32"/>
       <use xlink:href="#DejaVuSans-30" x="63.623047"/>
       <use xlink:href="#DejaVuSans-30" x="127.246094"/>
      </g>
     </g>
    </g>
    <g id="xtick_4">
     <g id="line2d_4">
      <g>
       <use xlink:href="#m345ea90eee" x="190.487059" y="269.636406" style="stroke: #000000; stroke-width: 0.8"/>
      </g>
     </g>
     <g id="text_4">
      <!-- 300 -->
      <g transform="translate(179.511747 285.374609) scale(0.115 -0.115)">
       <defs>
        <path id="DejaVuSans-33" d="M 2597 2516 
Q 3050 2419 3304 2112 
Q 3559 1806 3559 1356 
Q 3559 666 3084 287 
Q 2609 -91 1734 -91 
Q 1441 -91 1130 -33 
Q 819 25 488 141 
L 488 750 
Q 750 597 1062 519 
Q 1375 441 1716 441 
Q 2309 441 2620 675 
Q 2931 909 2931 1356 
Q 2931 1769 2642 2001 
Q 2353 2234 1838 2234 
L 1294 2234 
L 1294 2753 
L 1863 2753 
Q 2328 2753 2575 2939 
Q 2822 3125 2822 3475 
Q 2822 3834 2567 4026 
Q 2313 4219 1838 4219 
Q 1578 4219 1281 4162 
Q 984 4106 628 3988 
L 628 4550 
Q 988 4650 1302 4700 
Q 1616 4750 1894 4750 
Q 2613 4750 3031 4423 
Q 3450 4097 3450 3541 
Q 3450 3153 3228 2886 
Q 3006 2619 2597 2516 
z
" transform="scale(0.015625)"/>
       </defs>
       <use xlink:href="#DejaVuSans-33"/>
       <use xlink:href="#DejaVuSans-30" x="63.623047"/>
       <use xlink:href="#DejaVuSans-30" x="127.246094"/>
      </g>
     </g>
    </g>
    <g id="xtick_5">
     <g id="line2d_5">
      <g>
       <use xlink:href="#m345ea90eee" x="233.017987" y="269.636406" style="stroke: #000000; stroke-width: 0.8"/>
      </g>
     </g>
     <g id="text_5">
      <!-- 400 -->
      <g transform="translate(222.042674 285.374609) scale(0.115 -0.115)">
       <defs>
        <path id="DejaVuSans-34" d="M 2419 4116 
L 825 1625 
L 2419 1625 
L 2419 4116 
z
M 2253 4666 
L 3047 4666 
L 3047 1625 
L 3713 1625 
L 3713 1100 
L 3047 1100 
L 3047 0 
L 2419 0 
L 2419 1100 
L 313 1100 
L 313 1709 
L 2253 4666 
z
" transform="scale(0.015625)"/>
       </defs>
       <use xlink:href="#DejaVuSans-34"/>
       <use xlink:href="#DejaVuSans-30" x="63.623047"/>
       <use xlink:href="#DejaVuSans-30" x="127.246094"/>
      </g>
     </g>
    </g>
    <g id="xtick_6">
     <g id="line2d_6">
      <g>
       <use xlink:href="#m345ea90eee" x="275.548914" y="269.636406" style="stroke: #000000; stroke-width: 0.8"/>
      </g>
     </g>
     <g id="text_6">
      <!-- 500 -->
      <g transform="translate(264.573601 285.374609) scale(0.115 -0.115)">
       <defs>
        <path id="DejaVuSans-35" d="M 691 4666 
L 3169 4666 
L 3169 4134 
L 1269 4134 
L 1269 2991 
Q 1406 3038 1543 3061 
Q 1681 3084 1819 3084 
Q 2600 3084 3056 2656 
Q 3513 2228 3513 1497 
Q 3513 744 3044 326 
Q 2575 -91 1722 -91 
Q 1428 -91 1123 -41 
Q 819 9 494 109 
L 494 744 
Q 775 591 1075 516 
Q 1375 441 1709 441 
Q 2250 441 2565 725 
Q 2881 1009 2881 1497 
Q 2881 1984 2565 2268 
Q 2250 2553 1709 2553 
Q 1456 2553 1204 2497 
Q 953 2441 691 2322 
L 691 4666 
z
" transform="scale(0.015625)"/>
       </defs>
       <use xlink:href="#DejaVuSans-35"/>
       <use xlink:href="#DejaVuSans-30" x="63.623047"/>
       <use xlink:href="#DejaVuSans-30" x="127.246094"/>
      </g>
     </g>
    </g>
    <g id="xtick_7">
     <g id="line2d_7">
      <g>
       <use xlink:href="#m345ea90eee" x="318.079841" y="269.636406" style="stroke: #000000; stroke-width: 0.8"/>
      </g>
     </g>
     <g id="text_7">
      <!-- 600 -->
      <g transform="translate(307.104529 285.374609) scale(0.115 -0.115)">
       <defs>
        <path id="DejaVuSans-36" d="M 2113 2584 
Q 1688 2584 1439 2293 
Q 1191 2003 1191 1497 
Q 1191 994 1439 701 
Q 1688 409 2113 409 
Q 2538 409 2786 701 
Q 3034 994 3034 1497 
Q 3034 2003 2786 2293 
Q 2538 2584 2113 2584 
z
M 3366 4563 
L 3366 3988 
Q 3128 4100 2886 4159 
Q 2644 4219 2406 4219 
Q 1781 4219 1451 3797 
Q 1122 3375 1075 2522 
Q 1259 2794 1537 2939 
Q 1816 3084 2150 3084 
Q 2853 3084 3261 2657 
Q 3669 2231 3669 1497 
Q 3669 778 3244 343 
Q 2819 -91 2113 -91 
Q 1303 -91 875 529 
Q 447 1150 447 2328 
Q 447 3434 972 4092 
Q 1497 4750 2381 4750 
Q 2619 4750 2861 4703 
Q 3103 4656 3366 4563 
z
" transform="scale(0.015625)"/>
       </defs>
       <use xlink:href="#DejaVuSans-36"/>
       <use xlink:href="#DejaVuSans-30" x="63.623047"/>
       <use xlink:href="#DejaVuSans-30" x="127.246094"/>
      </g>
     </g>
    </g>
    <g id="xtick_8">
     <g id="line2d_8">
      <g>
       <use xlink:href="#m345ea90eee" x="360.610768" y="269.636406" style="stroke: #000000; stroke-width: 0.8"/>
      </g>
     </g>
     <g id="text_8">
      <!-- 700 -->
      <g transform="translate(349.635456 285.374609) scale(0.115 -0.115)">
       <defs>
        <path id="DejaVuSans-37" d="M 525 4666 
L 3525 4666 
L 3525 4397 
L 1831 0 
L 1172 0 
L 2766 4134 
L 525 4134 
L 525 4666 
z
" transform="scale(0.015625)"/>
       </defs>
       <use xlink:href="#DejaVuSans-37"/>
       <use xlink:href="#DejaVuSans-30" x="63.623047"/>
       <use xlink:href="#DejaVuSans-30" x="127.246094"/>
      </g>
     </g>
    </g>
    <g id="xtick_9">
     <g id="line2d_9">
      <g>
       <use xlink:href="#m345ea90eee" x="403.141696" y="269.636406" style="stroke: #000000; stroke-width: 0.8"/>
      </g>
     </g>
     <g id="text_9">
      <!-- 800 -->
      <g transform="translate(392.166383 285.374609) scale(0.115 -0.115)">
       <defs>
        <path id="DejaVuSans-38" d="M 2034 2216 
Q 1584 2216 1326 1975 
Q 1069 1734 1069 1313 
Q 1069 891 1326 650 
Q 1584 409 2034 409 
Q 2484 409 2743 651 
Q 3003 894 3003 1313 
Q 3003 1734 2745 1975 
Q 2488 2216 2034 2216 
z
M 1403 2484 
Q 997 2584 770 2862 
Q 544 3141 544 3541 
Q 544 4100 942 4425 
Q 1341 4750 2034 4750 
Q 2731 4750 3128 4425 
Q 3525 4100 3525 3541 
Q 3525 3141 3298 2862 
Q 3072 2584 2669 2484 
Q 3125 2378 3379 2068 
Q 3634 1759 3634 1313 
Q 3634 634 3220 271 
Q 2806 -91 2034 -91 
Q 1263 -91 848 271 
Q 434 634 434 1313 
Q 434 1759 690 2068 
Q 947 2378 1403 2484 
z
M 1172 3481 
Q 1172 3119 1398 2916 
Q 1625 2713 2034 2713 
Q 2441 2713 2670 2916 
Q 2900 3119 2900 3481 
Q 2900 3844 2670 4047 
Q 2441 4250 2034 4250 
Q 1625 4250 1398 4047 
Q 1172 3844 1172 3481 
z
" transform="scale(0.015625)"/>
       </defs>
       <use xlink:href="#DejaVuSans-38"/>
       <use xlink:href="#DejaVuSans-30" x="63.623047"/>
       <use xlink:href="#DejaVuSans-30" x="127.246094"/>
      </g>
     </g>
    </g>
    <g id="text_10">
     <!-- Feature Size -->
     <g transform="translate(189.242734 303.163906) scale(0.15 -0.15)">
      <defs>
       <path id="DejaVuSans-46" d="M 628 4666 
L 3309 4666 
L 3309 4134 
L 1259 4134 
L 1259 2759 
L 3109 2759 
L 3109 2228 
L 1259 2228 
L 1259 0 
L 628 0 
L 628 4666 
z
" transform="scale(0.015625)"/>
       <path id="DejaVuSans-65" d="M 3597 1894 
L 3597 1613 
L 953 1613 
Q 991 1019 1311 708 
Q 1631 397 2203 397 
Q 2534 397 2845 478 
Q 3156 559 3463 722 
L 3463 178 
Q 3153 47 2828 -22 
Q 2503 -91 2169 -91 
Q 1331 -91 842 396 
Q 353 884 353 1716 
Q 353 2575 817 3079 
Q 1281 3584 2069 3584 
Q 2775 3584 3186 3129 
Q 3597 2675 3597 1894 
z
M 3022 2063 
Q 3016 2534 2758 2815 
Q 2500 3097 2075 3097 
Q 1594 3097 1305 2825 
Q 1016 2553 972 2059 
L 3022 2063 
z
" transform="scale(0.015625)"/>
       <path id="DejaVuSans-61" d="M 2194 1759 
Q 1497 1759 1228 1600 
Q 959 1441 959 1056 
Q 959 750 1161 570 
Q 1363 391 1709 391 
Q 2188 391 2477 730 
Q 2766 1069 2766 1631 
L 2766 1759 
L 2194 1759 
z
M 3341 1997 
L 3341 0 
L 2766 0 
L 2766 531 
Q 2569 213 2275 61 
Q 1981 -91 1556 -91 
Q 1019 -91 701 211 
Q 384 513 384 1019 
Q 384 1609 779 1909 
Q 1175 2209 1959 2209 
L 2766 2209 
L 2766 2266 
Q 2766 2663 2505 2880 
Q 2244 3097 1772 3097 
Q 1472 3097 1187 3025 
Q 903 2953 641 2809 
L 641 3341 
Q 956 3463 1253 3523 
Q 1550 3584 1831 3584 
Q 2591 3584 2966 3190 
Q 3341 2797 3341 1997 
z
" transform="scale(0.015625)"/>
       <path id="DejaVuSans-74" d="M 1172 4494 
L 1172 3500 
L 2356 3500 
L 2356 3053 
L 1172 3053 
L 1172 1153 
Q 1172 725 1289 603 
Q 1406 481 1766 481 
L 2356 481 
L 2356 0 
L 1766 0 
Q 1100 0 847 248 
Q 594 497 594 1153 
L 594 3053 
L 172 3053 
L 172 3500 
L 594 3500 
L 594 4494 
L 1172 4494 
z
" transform="scale(0.015625)"/>
       <path id="DejaVuSans-75" d="M 544 1381 
L 544 3500 
L 1119 3500 
L 1119 1403 
Q 1119 906 1312 657 
Q 1506 409 1894 409 
Q 2359 409 2629 706 
Q 2900 1003 2900 1516 
L 2900 3500 
L 3475 3500 
L 3475 0 
L 2900 0 
L 2900 538 
Q 2691 219 2414 64 
Q 2138 -91 1772 -91 
Q 1169 -91 856 284 
Q 544 659 544 1381 
z
M 1991 3584 
L 1991 3584 
z
" transform="scale(0.015625)"/>
       <path id="DejaVuSans-72" d="M 2631 2963 
Q 2534 3019 2420 3045 
Q 2306 3072 2169 3072 
Q 1681 3072 1420 2755 
Q 1159 2438 1159 1844 
L 1159 0 
L 581 0 
L 581 3500 
L 1159 3500 
L 1159 2956 
Q 1341 3275 1631 3429 
Q 1922 3584 2338 3584 
Q 2397 3584 2469 3576 
Q 2541 3569 2628 3553 
L 2631 2963 
z
" transform="scale(0.015625)"/>
       <path id="DejaVuSans-20" transform="scale(0.015625)"/>
       <path id="DejaVuSans-53" d="M 3425 4513 
L 3425 3897 
Q 3066 4069 2747 4153 
Q 2428 4238 2131 4238 
Q 1616 4238 1336 4038 
Q 1056 3838 1056 3469 
Q 1056 3159 1242 3001 
Q 1428 2844 1947 2747 
L 2328 2669 
Q 3034 2534 3370 2195 
Q 3706 1856 3706 1288 
Q 3706 609 3251 259 
Q 2797 -91 1919 -91 
Q 1588 -91 1214 -16 
Q 841 59 441 206 
L 441 856 
Q 825 641 1194 531 
Q 1563 422 1919 422 
Q 2459 422 2753 634 
Q 3047 847 3047 1241 
Q 3047 1584 2836 1778 
Q 2625 1972 2144 2069 
L 1759 2144 
Q 1053 2284 737 2584 
Q 422 2884 422 3419 
Q 422 4038 858 4394 
Q 1294 4750 2059 4750 
Q 2388 4750 2728 4690 
Q 3069 4631 3425 4513 
z
" transform="scale(0.015625)"/>
       <path id="DejaVuSans-69" d="M 603 3500 
L 1178 3500 
L 1178 0 
L 603 0 
L 603 3500 
z
M 603 4863 
L 1178 4863 
L 1178 4134 
L 603 4134 
L 603 4863 
z
" transform="scale(0.015625)"/>
       <path id="DejaVuSans-7a" d="M 353 3500 
L 3084 3500 
L 3084 2975 
L 922 459 
L 3084 459 
L 3084 0 
L 275 0 
L 275 525 
L 2438 3041 
L 353 3041 
L 353 3500 
z
" transform="scale(0.015625)"/>
      </defs>
      <use xlink:href="#DejaVuSans-46"/>
      <use xlink:href="#DejaVuSans-65" x="52.019531"/>
      <use xlink:href="#DejaVuSans-61" x="113.542969"/>
      <use xlink:href="#DejaVuSans-74" x="174.822266"/>
      <use xlink:href="#DejaVuSans-75" x="214.03125"/>
      <use xlink:href="#DejaVuSans-72" x="277.410156"/>
      <use xlink:href="#DejaVuSans-65" x="316.273438"/>
      <use xlink:href="#DejaVuSans-20" x="377.796875"/>
      <use xlink:href="#DejaVuSans-53" x="409.583984"/>
      <use xlink:href="#DejaVuSans-69" x="473.060547"/>
      <use xlink:href="#DejaVuSans-7a" x="500.84375"/>
      <use xlink:href="#DejaVuSans-65" x="553.333984"/>
     </g>
    </g>
   </g>
   <g id="matplotlib.axis_2">
    <g id="ytick_1">
     <g id="line2d_10">
      <defs>
       <path id="m05815b4f9b" d="M 0 0 
L -3.5 0 
" style="stroke: #000000; stroke-width: 0.8"/>
      </defs>
      <g>
       <use xlink:href="#m05815b4f9b" x="47.987188" y="264.645841" style="stroke: #000000; stroke-width: 0.8"/>
      </g>
     </g>
     <g id="text_11">
      <!-- 0 -->
      <g transform="translate(33.352188 269.204904) scale(0.12 -0.12)">
       <use xlink:href="#DejaVuSans-30"/>
      </g>
     </g>
    </g>
    <g id="ytick_2">
     <g id="line2d_11">
      <g>
       <use xlink:href="#m05815b4f9b" x="47.987188" y="235.289576" style="stroke: #000000; stroke-width: 0.8"/>
      </g>
     </g>
     <g id="text_12">
      <!-- 10 -->
      <g transform="translate(25.717188 239.848638) scale(0.12 -0.12)">
       <use xlink:href="#DejaVuSans-31"/>
       <use xlink:href="#DejaVuSans-30" x="63.623047"/>
      </g>
     </g>
    </g>
    <g id="ytick_3">
     <g id="line2d_12">
      <g>
       <use xlink:href="#m05815b4f9b" x="47.987188" y="205.93331" style="stroke: #000000; stroke-width: 0.8"/>
      </g>
     </g>
     <g id="text_13">
      <!-- 20 -->
      <g transform="translate(25.717188 210.492373) scale(0.12 -0.12)">
       <use xlink:href="#DejaVuSans-32"/>
       <use xlink:href="#DejaVuSans-30" x="63.623047"/>
      </g>
     </g>
    </g>
    <g id="ytick_4">
     <g id="line2d_13">
      <g>
       <use xlink:href="#m05815b4f9b" x="47.987188" y="176.577045" style="stroke: #000000; stroke-width: 0.8"/>
      </g>
     </g>
     <g id="text_14">
      <!-- 30 -->
      <g transform="translate(25.717188 181.136108) scale(0.12 -0.12)">
       <use xlink:href="#DejaVuSans-33"/>
       <use xlink:href="#DejaVuSans-30" x="63.623047"/>
      </g>
     </g>
    </g>
    <g id="ytick_5">
     <g id="line2d_14">
      <g>
       <use xlink:href="#m05815b4f9b" x="47.987188" y="147.22078" style="stroke: #000000; stroke-width: 0.8"/>
      </g>
     </g>
     <g id="text_15">
      <!-- 40 -->
      <g transform="translate(25.717188 151.779842) scale(0.12 -0.12)">
       <use xlink:href="#DejaVuSans-34"/>
       <use xlink:href="#DejaVuSans-30" x="63.623047"/>
      </g>
     </g>
    </g>
    <g id="ytick_6">
     <g id="line2d_15">
      <g>
       <use xlink:href="#m05815b4f9b" x="47.987188" y="117.864514" style="stroke: #000000; stroke-width: 0.8"/>
      </g>
     </g>
     <g id="text_16">
      <!-- 50 -->
      <g transform="translate(25.717188 122.423577) scale(0.12 -0.12)">
       <use xlink:href="#DejaVuSans-35"/>
       <use xlink:href="#DejaVuSans-30" x="63.623047"/>
      </g>
     </g>
    </g>
    <g id="ytick_7">
     <g id="line2d_16">
      <g>
       <use xlink:href="#m05815b4f9b" x="47.987188" y="88.508249" style="stroke: #000000; stroke-width: 0.8"/>
      </g>
     </g>
     <g id="text_17">
      <!-- 60 -->
      <g transform="translate(25.717188 93.067312) scale(0.12 -0.12)">
       <use xlink:href="#DejaVuSans-36"/>
       <use xlink:href="#DejaVuSans-30" x="63.623047"/>
      </g>
     </g>
    </g>
    <g id="ytick_8">
     <g id="line2d_17">
      <g>
       <use xlink:href="#m05815b4f9b" x="47.987188" y="59.151984" style="stroke: #000000; stroke-width: 0.8"/>
      </g>
     </g>
     <g id="text_18">
      <!-- 70 -->
      <g transform="translate(25.717188 63.711046) scale(0.12 -0.12)">
       <use xlink:href="#DejaVuSans-37"/>
       <use xlink:href="#DejaVuSans-30" x="63.623047"/>
      </g>
     </g>
    </g>
    <g id="text_19">
     <!-- Num Interacting Commits -->
     <g transform="translate(18.597656 246.823203) rotate(-90) scale(0.15 -0.15)">
      <defs>
       <path id="DejaVuSans-4e" d="M 628 4666 
L 1478 4666 
L 3547 763 
L 3547 4666 
L 4159 4666 
L 4159 0 
L 3309 0 
L 1241 3903 
L 1241 0 
L 628 0 
L 628 4666 
z
" transform="scale(0.015625)"/>
       <path id="DejaVuSans-6d" d="M 3328 2828 
Q 3544 3216 3844 3400 
Q 4144 3584 4550 3584 
Q 5097 3584 5394 3201 
Q 5691 2819 5691 2113 
L 5691 0 
L 5113 0 
L 5113 2094 
Q 5113 2597 4934 2840 
Q 4756 3084 4391 3084 
Q 3944 3084 3684 2787 
Q 3425 2491 3425 1978 
L 3425 0 
L 2847 0 
L 2847 2094 
Q 2847 2600 2669 2842 
Q 2491 3084 2119 3084 
Q 1678 3084 1418 2786 
Q 1159 2488 1159 1978 
L 1159 0 
L 581 0 
L 581 3500 
L 1159 3500 
L 1159 2956 
Q 1356 3278 1631 3431 
Q 1906 3584 2284 3584 
Q 2666 3584 2933 3390 
Q 3200 3197 3328 2828 
z
" transform="scale(0.015625)"/>
       <path id="DejaVuSans-49" d="M 628 4666 
L 1259 4666 
L 1259 0 
L 628 0 
L 628 4666 
z
" transform="scale(0.015625)"/>
       <path id="DejaVuSans-6e" d="M 3513 2113 
L 3513 0 
L 2938 0 
L 2938 2094 
Q 2938 2591 2744 2837 
Q 2550 3084 2163 3084 
Q 1697 3084 1428 2787 
Q 1159 2491 1159 1978 
L 1159 0 
L 581 0 
L 581 3500 
L 1159 3500 
L 1159 2956 
Q 1366 3272 1645 3428 
Q 1925 3584 2291 3584 
Q 2894 3584 3203 3211 
Q 3513 2838 3513 2113 
z
" transform="scale(0.015625)"/>
       <path id="DejaVuSans-63" d="M 3122 3366 
L 3122 2828 
Q 2878 2963 2633 3030 
Q 2388 3097 2138 3097 
Q 1578 3097 1268 2742 
Q 959 2388 959 1747 
Q 959 1106 1268 751 
Q 1578 397 2138 397 
Q 2388 397 2633 464 
Q 2878 531 3122 666 
L 3122 134 
Q 2881 22 2623 -34 
Q 2366 -91 2075 -91 
Q 1284 -91 818 406 
Q 353 903 353 1747 
Q 353 2603 823 3093 
Q 1294 3584 2113 3584 
Q 2378 3584 2631 3529 
Q 2884 3475 3122 3366 
z
" transform="scale(0.015625)"/>
       <path id="DejaVuSans-67" d="M 2906 1791 
Q 2906 2416 2648 2759 
Q 2391 3103 1925 3103 
Q 1463 3103 1205 2759 
Q 947 2416 947 1791 
Q 947 1169 1205 825 
Q 1463 481 1925 481 
Q 2391 481 2648 825 
Q 2906 1169 2906 1791 
z
M 3481 434 
Q 3481 -459 3084 -895 
Q 2688 -1331 1869 -1331 
Q 1566 -1331 1297 -1286 
Q 1028 -1241 775 -1147 
L 775 -588 
Q 1028 -725 1275 -790 
Q 1522 -856 1778 -856 
Q 2344 -856 2625 -561 
Q 2906 -266 2906 331 
L 2906 616 
Q 2728 306 2450 153 
Q 2172 0 1784 0 
Q 1141 0 747 490 
Q 353 981 353 1791 
Q 353 2603 747 3093 
Q 1141 3584 1784 3584 
Q 2172 3584 2450 3431 
Q 2728 3278 2906 2969 
L 2906 3500 
L 3481 3500 
L 3481 434 
z
" transform="scale(0.015625)"/>
       <path id="DejaVuSans-43" d="M 4122 4306 
L 4122 3641 
Q 3803 3938 3442 4084 
Q 3081 4231 2675 4231 
Q 1875 4231 1450 3742 
Q 1025 3253 1025 2328 
Q 1025 1406 1450 917 
Q 1875 428 2675 428 
Q 3081 428 3442 575 
Q 3803 722 4122 1019 
L 4122 359 
Q 3791 134 3420 21 
Q 3050 -91 2638 -91 
Q 1578 -91 968 557 
Q 359 1206 359 2328 
Q 359 3453 968 4101 
Q 1578 4750 2638 4750 
Q 3056 4750 3426 4639 
Q 3797 4528 4122 4306 
z
" transform="scale(0.015625)"/>
       <path id="DejaVuSans-6f" d="M 1959 3097 
Q 1497 3097 1228 2736 
Q 959 2375 959 1747 
Q 959 1119 1226 758 
Q 1494 397 1959 397 
Q 2419 397 2687 759 
Q 2956 1122 2956 1747 
Q 2956 2369 2687 2733 
Q 2419 3097 1959 3097 
z
M 1959 3584 
Q 2709 3584 3137 3096 
Q 3566 2609 3566 1747 
Q 3566 888 3137 398 
Q 2709 -91 1959 -91 
Q 1206 -91 779 398 
Q 353 888 353 1747 
Q 353 2609 779 3096 
Q 1206 3584 1959 3584 
z
" transform="scale(0.015625)"/>
       <path id="DejaVuSans-73" d="M 2834 3397 
L 2834 2853 
Q 2591 2978 2328 3040 
Q 2066 3103 1784 3103 
Q 1356 3103 1142 2972 
Q 928 2841 928 2578 
Q 928 2378 1081 2264 
Q 1234 2150 1697 2047 
L 1894 2003 
Q 2506 1872 2764 1633 
Q 3022 1394 3022 966 
Q 3022 478 2636 193 
Q 2250 -91 1575 -91 
Q 1294 -91 989 -36 
Q 684 19 347 128 
L 347 722 
Q 666 556 975 473 
Q 1284 391 1588 391 
Q 1994 391 2212 530 
Q 2431 669 2431 922 
Q 2431 1156 2273 1281 
Q 2116 1406 1581 1522 
L 1381 1569 
Q 847 1681 609 1914 
Q 372 2147 372 2553 
Q 372 3047 722 3315 
Q 1072 3584 1716 3584 
Q 2034 3584 2315 3537 
Q 2597 3491 2834 3397 
z
" transform="scale(0.015625)"/>
      </defs>
      <use xlink:href="#DejaVuSans-4e"/>
      <use xlink:href="#DejaVuSans-75" x="74.804688"/>
      <use xlink:href="#DejaVuSans-6d" x="138.183594"/>
      <use xlink:href="#DejaVuSans-20" x="235.595703"/>
      <use xlink:href="#DejaVuSans-49" x="267.382812"/>
      <use xlink:href="#DejaVuSans-6e" x="296.875"/>
      <use xlink:href="#DejaVuSans-74" x="360.253906"/>
      <use xlink:href="#DejaVuSans-65" x="399.462891"/>
      <use xlink:href="#DejaVuSans-72" x="460.986328"/>
      <use xlink:href="#DejaVuSans-61" x="502.099609"/>
      <use xlink:href="#DejaVuSans-63" x="563.378906"/>
      <use xlink:href="#DejaVuSans-74" x="618.359375"/>
      <use xlink:href="#DejaVuSans-69" x="657.568359"/>
      <use xlink:href="#DejaVuSans-6e" x="685.351562"/>
      <use xlink:href="#DejaVuSans-67" x="748.730469"/>
      <use xlink:href="#DejaVuSans-20" x="812.207031"/>
      <use xlink:href="#DejaVuSans-43" x="843.994141"/>
      <use xlink:href="#DejaVuSans-6f" x="913.818359"/>
      <use xlink:href="#DejaVuSans-6d" x="975"/>
      <use xlink:href="#DejaVuSans-6d" x="1072.412109"/>
      <use xlink:href="#DejaVuSans-69" x="1169.824219"/>
      <use xlink:href="#DejaVuSans-74" x="1197.607422"/>
      <use xlink:href="#DejaVuSans-73" x="1236.816406"/>
     </g>
    </g>
   </g>
   <g id="line2d_18">
    <path d="M 47.987188 253.871993 
L 51.77244 251.959479 
L 55.557693 250.046965 
L 59.342945 248.13445 
L 63.128198 246.221936 
L 66.91345 244.309422 
L 70.698703 242.396908 
L 74.483955 240.484394 
L 78.269208 238.57188 
L 82.05446 236.659366 
L 85.839713 234.746852 
L 89.624965 232.834337 
L 93.410218 230.921823 
L 97.19547 229.009309 
L 100.980723 227.096795 
L 104.765975 225.184281 
L 108.551228 223.271767 
L 112.33648 221.359253 
L 116.121733 219.446739 
L 119.906985 217.534224 
L 123.692238 215.62171 
L 127.477491 213.709196 
L 131.262743 211.796682 
L 135.047996 209.884168 
L 138.833248 207.971654 
L 142.618501 206.05914 
L 146.403753 204.146626 
L 150.189006 202.234111 
L 153.974258 200.321597 
L 157.759511 198.409083 
L 161.544763 196.496569 
L 165.330016 194.584055 
L 169.115268 192.671541 
L 172.900521 190.759027 
L 176.685773 188.846512 
L 180.471026 186.933998 
L 184.256278 185.021484 
L 188.041531 183.10897 
L 191.826783 181.196456 
L 195.612036 179.283942 
L 199.397289 177.371428 
L 203.182541 175.458914 
L 206.967794 173.546399 
L 210.753046 171.633885 
L 214.538299 169.721371 
L 218.323551 167.808857 
L 222.108804 165.896343 
L 225.894056 163.983829 
L 229.679309 162.071315 
L 233.464561 160.158801 
L 237.249814 158.246286 
L 241.035066 156.333772 
L 244.820319 154.421258 
L 248.605571 152.508744 
L 252.390824 150.59623 
L 256.176076 148.683716 
L 259.961329 146.771202 
L 263.746581 144.858688 
L 267.531834 142.946173 
L 271.317086 141.033659 
L 275.102339 139.121145 
L 278.887592 137.208631 
L 282.672844 135.296117 
L 286.458097 133.383603 
L 290.243349 131.471089 
L 294.028602 129.558574 
L 297.813854 127.64606 
L 301.599107 125.733546 
L 305.384359 123.821032 
L 309.169612 121.908518 
L 312.954864 119.996004 
L 316.740117 118.08349 
L 320.525369 116.170976 
L 324.310622 114.258461 
L 328.095874 112.345947 
L 331.881127 110.433433 
L 335.666379 108.520919 
L 339.451632 106.608405 
L 343.236884 104.695891 
L 347.022137 102.783377 
L 350.80739 100.870863 
L 354.592642 98.958348 
L 358.377895 97.045834 
L 362.163147 95.13332 
L 365.9484 93.220806 
L 369.733652 91.308292 
L 373.518905 89.395778 
L 377.304157 87.483264 
L 381.08941 85.57075 
L 384.874662 83.658235 
L 388.659915 81.745721 
L 392.445167 79.833207 
L 396.23042 77.920693 
L 400.015672 76.008179 
L 403.800925 74.095665 
L 407.586177 72.183151 
L 411.37143 70.270636 
L 415.156682 68.358122 
L 418.941935 66.445608 
L 422.727187 64.533094 
" clip-path="url(#p999a0be0f6)" style="fill: none; stroke: #ff7f0e; stroke-width: 2; stroke-linecap: square"/>
   </g>
   <g id="patch_3">
    <path d="M 47.987188 269.636406 
L 47.987188 30.676406 
" style="fill: none; stroke: #000000; stroke-width: 0.8; stroke-linejoin: miter; stroke-linecap: square"/>
   </g>
   <g id="patch_4">
    <path d="M 422.727187 269.636406 
L 422.727187 30.676406 
" style="fill: none; stroke: #000000; stroke-width: 0.8; stroke-linejoin: miter; stroke-linecap: square"/>
   </g>
   <g id="patch_5">
    <path d="M 47.987188 269.636406 
L 422.727187 269.636406 
" style="fill: none; stroke: #000000; stroke-width: 0.8; stroke-linejoin: miter; stroke-linecap: square"/>
   </g>
   <g id="patch_6">
    <path d="M 47.987188 30.676406 
L 422.727187 30.676406 
" style="fill: none; stroke: #000000; stroke-width: 0.8; stroke-linejoin: miter; stroke-linecap: square"/>
   </g>
   <g id="text_20">
    <!-- corr=0.824, p-value=0.003 -->
    <g style="fill: #ff7f0e" transform="translate(59.466285 75.004367) scale(0.125 -0.125)">
     <defs>
      <path id="DejaVuSans-3d" d="M 678 2906 
L 4684 2906 
L 4684 2381 
L 678 2381 
L 678 2906 
z
M 678 1631 
L 4684 1631 
L 4684 1100 
L 678 1100 
L 678 1631 
z
" transform="scale(0.015625)"/>
      <path id="DejaVuSans-2e" d="M 684 794 
L 1344 794 
L 1344 0 
L 684 0 
L 684 794 
z
" transform="scale(0.015625)"/>
      <path id="DejaVuSans-2c" d="M 750 794 
L 1409 794 
L 1409 256 
L 897 -744 
L 494 -744 
L 750 256 
L 750 794 
z
" transform="scale(0.015625)"/>
      <path id="DejaVuSans-70" d="M 1159 525 
L 1159 -1331 
L 581 -1331 
L 581 3500 
L 1159 3500 
L 1159 2969 
Q 1341 3281 1617 3432 
Q 1894 3584 2278 3584 
Q 2916 3584 3314 3078 
Q 3713 2572 3713 1747 
Q 3713 922 3314 415 
Q 2916 -91 2278 -91 
Q 1894 -91 1617 61 
Q 1341 213 1159 525 
z
M 3116 1747 
Q 3116 2381 2855 2742 
Q 2594 3103 2138 3103 
Q 1681 3103 1420 2742 
Q 1159 2381 1159 1747 
Q 1159 1113 1420 752 
Q 1681 391 2138 391 
Q 2594 391 2855 752 
Q 3116 1113 3116 1747 
z
" transform="scale(0.015625)"/>
      <path id="DejaVuSans-2d" d="M 313 2009 
L 1997 2009 
L 1997 1497 
L 313 1497 
L 313 2009 
z
" transform="scale(0.015625)"/>
      <path id="DejaVuSans-76" d="M 191 3500 
L 800 3500 
L 1894 563 
L 2988 3500 
L 3597 3500 
L 2284 0 
L 1503 0 
L 191 3500 
z
" transform="scale(0.015625)"/>
      <path id="DejaVuSans-6c" d="M 603 4863 
L 1178 4863 
L 1178 0 
L 603 0 
L 603 4863 
z
" transform="scale(0.015625)"/>
     </defs>
     <use xlink:href="#DejaVuSans-63"/>
     <use xlink:href="#DejaVuSans-6f" x="54.980469"/>
     <use xlink:href="#DejaVuSans-72" x="116.162109"/>
     <use xlink:href="#DejaVuSans-72" x="155.525391"/>
     <use xlink:href="#DejaVuSans-3d" x="196.638672"/>
     <use xlink:href="#DejaVuSans-30" x="280.427734"/>
     <use xlink:href="#DejaVuSans-2e" x="344.050781"/>
     <use xlink:href="#DejaVuSans-38" x="375.837891"/>
     <use xlink:href="#DejaVuSans-32" x="439.460938"/>
     <use xlink:href="#DejaVuSans-34" x="503.083984"/>
     <use xlink:href="#DejaVuSans-2c" x="566.707031"/>
     <use xlink:href="#DejaVuSans-20" x="598.494141"/>
     <use xlink:href="#DejaVuSans-70" x="630.28125"/>
     <use xlink:href="#DejaVuSans-2d" x="693.757812"/>
     <use xlink:href="#DejaVuSans-76" x="727.216797"/>
     <use xlink:href="#DejaVuSans-61" x="786.396484"/>
     <use xlink:href="#DejaVuSans-6c" x="847.675781"/>
     <use xlink:href="#DejaVuSans-75" x="875.458984"/>
     <use xlink:href="#DejaVuSans-65" x="938.837891"/>
     <use xlink:href="#DejaVuSans-3d" x="1000.361328"/>
     <use xlink:href="#DejaVuSans-30" x="1084.150391"/>
     <use xlink:href="#DejaVuSans-2e" x="1147.773438"/>
     <use xlink:href="#DejaVuSans-30" x="1179.560547"/>
     <use xlink:href="#DejaVuSans-30" x="1243.183594"/>
     <use xlink:href="#DejaVuSans-33" x="1306.806641"/>
    </g>
   </g>
   <g id="text_21">
    <!-- xz -->
    <g transform="translate(222.514922 24.676406) scale(0.23 -0.23)">
     <defs>
      <path id="DejaVuSans-78" d="M 3513 3500 
L 2247 1797 
L 3578 0 
L 2900 0 
L 1881 1375 
L 863 0 
L 184 0 
L 1544 1831 
L 300 3500 
L 978 3500 
L 1906 2253 
L 2834 3500 
L 3513 3500 
z
" transform="scale(0.015625)"/>
     </defs>
     <use xlink:href="#DejaVuSans-78"/>
     <use xlink:href="#DejaVuSans-7a" x="59.179688"/>
    </g>
   </g>
   <g id="legend_1">
    <g id="patch_7">
     <path d="M 57.087188 60.157969 
L 210.860938 60.157969 
Q 213.460938 60.157969 213.460938 57.557969 
L 213.460938 39.776406 
Q 213.460938 37.176406 210.860938 37.176406 
L 57.087188 37.176406 
Q 54.487188 37.176406 54.487188 39.776406 
L 54.487188 57.557969 
Q 54.487188 60.157969 57.087188 60.157969 
z
" style="fill: #ffffff; opacity: 0.8; stroke: #cccccc; stroke-linejoin: miter"/>
    </g>
    <g id="PathCollection_2">
     <g>
      <use xlink:href="#m83d1836cdd" x="72.687188" y="48.841875" style="fill: #ff7f0e; fill-opacity: 0.8; stroke: #ff7f0e; stroke-opacity: 0.8"/>
     </g>
    </g>
    <g id="text_22">
     <!-- Outside Commits -->
     <g transform="translate(96.087187 52.254375) scale(0.13 -0.13)">
      <defs>
       <path id="DejaVuSans-4f" d="M 2522 4238 
Q 1834 4238 1429 3725 
Q 1025 3213 1025 2328 
Q 1025 1447 1429 934 
Q 1834 422 2522 422 
Q 3209 422 3611 934 
Q 4013 1447 4013 2328 
Q 4013 3213 3611 3725 
Q 3209 4238 2522 4238 
z
M 2522 4750 
Q 3503 4750 4090 4092 
Q 4678 3434 4678 2328 
Q 4678 1225 4090 567 
Q 3503 -91 2522 -91 
Q 1538 -91 948 565 
Q 359 1222 359 2328 
Q 359 3434 948 4092 
Q 1538 4750 2522 4750 
z
" transform="scale(0.015625)"/>
       <path id="DejaVuSans-64" d="M 2906 2969 
L 2906 4863 
L 3481 4863 
L 3481 0 
L 2906 0 
L 2906 525 
Q 2725 213 2448 61 
Q 2172 -91 1784 -91 
Q 1150 -91 751 415 
Q 353 922 353 1747 
Q 353 2572 751 3078 
Q 1150 3584 1784 3584 
Q 2172 3584 2448 3432 
Q 2725 3281 2906 2969 
z
M 947 1747 
Q 947 1113 1208 752 
Q 1469 391 1925 391 
Q 2381 391 2643 752 
Q 2906 1113 2906 1747 
Q 2906 2381 2643 2742 
Q 2381 3103 1925 3103 
Q 1469 3103 1208 2742 
Q 947 2381 947 1747 
z
" transform="scale(0.015625)"/>
      </defs>
      <use xlink:href="#DejaVuSans-4f"/>
      <use xlink:href="#DejaVuSans-75" x="78.710938"/>
      <use xlink:href="#DejaVuSans-74" x="142.089844"/>
      <use xlink:href="#DejaVuSans-73" x="181.298828"/>
      <use xlink:href="#DejaVuSans-69" x="233.398438"/>
      <use xlink:href="#DejaVuSans-64" x="261.181641"/>
      <use xlink:href="#DejaVuSans-65" x="324.658203"/>
      <use xlink:href="#DejaVuSans-20" x="386.181641"/>
      <use xlink:href="#DejaVuSans-43" x="417.96875"/>
      <use xlink:href="#DejaVuSans-6f" x="487.792969"/>
      <use xlink:href="#DejaVuSans-6d" x="548.974609"/>
      <use xlink:href="#DejaVuSans-6d" x="646.386719"/>
      <use xlink:href="#DejaVuSans-69" x="743.798828"/>
      <use xlink:href="#DejaVuSans-74" x="771.582031"/>
      <use xlink:href="#DejaVuSans-73" x="810.791016"/>
     </g>
    </g>
   </g>
  </g>
  <g id="axes_2">
   <g id="patch_8">
    <path d="M 503.487188 269.636406 
L 878.227187 269.636406 
L 878.227187 30.676406 
L 503.487188 30.676406 
z
" style="fill: #ffffff"/>
   </g>
   <g id="PathCollection_3">
    <g clip-path="url(#pdcd442f43f)">
     <use xlink:href="#m83d1836cdd" x="520.520824" y="41.538224" style="fill: #ff7f0e; fill-opacity: 0.8; stroke: #ff7f0e; stroke-opacity: 0.8"/>
     <use xlink:href="#m83d1836cdd" x="522.183047" y="258.774588" style="fill: #ff7f0e; fill-opacity: 0.8; stroke: #ff7f0e; stroke-opacity: 0.8"/>
     <use xlink:href="#m83d1836cdd" x="523.263493" y="68.69277" style="fill: #ff7f0e; fill-opacity: 0.8; stroke: #ff7f0e; stroke-opacity: 0.8"/>
     <use xlink:href="#m83d1836cdd" x="523.845271" y="68.69277" style="fill: #ff7f0e; fill-opacity: 0.8; stroke: #ff7f0e; stroke-opacity: 0.8"/>
     <use xlink:href="#m83d1836cdd" x="523.928382" y="57.830952" style="fill: #ff7f0e; fill-opacity: 0.8; stroke: #ff7f0e; stroke-opacity: 0.8"/>
     <use xlink:href="#m83d1836cdd" x="527.502163" y="41.538224" style="fill: #ff7f0e; fill-opacity: 0.8; stroke: #ff7f0e; stroke-opacity: 0.8"/>
     <use xlink:href="#m83d1836cdd" x="534.732836" y="101.278224" style="fill: #ff7f0e; fill-opacity: 0.8; stroke: #ff7f0e; stroke-opacity: 0.8"/>
     <use xlink:href="#m83d1836cdd" x="535.813281" y="41.538224" style="fill: #ff7f0e; fill-opacity: 0.8; stroke: #ff7f0e; stroke-opacity: 0.8"/>
     <use xlink:href="#m83d1836cdd" x="538.348172" y="112.140043" style="fill: #ff7f0e; fill-opacity: 0.8; stroke: #ff7f0e; stroke-opacity: 0.8"/>
     <use xlink:href="#m83d1836cdd" x="826.286855" y="242.481861" style="fill: #ff7f0e; fill-opacity: 0.8; stroke: #ff7f0e; stroke-opacity: 0.8"/>
     <use xlink:href="#m83d1836cdd" x="830.48397" y="242.481861" style="fill: #ff7f0e; fill-opacity: 0.8; stroke: #ff7f0e; stroke-opacity: 0.8"/>
     <use xlink:href="#m83d1836cdd" x="856.082214" y="231.620043" style="fill: #ff7f0e; fill-opacity: 0.8; stroke: #ff7f0e; stroke-opacity: 0.8"/>
     <use xlink:href="#m83d1836cdd" x="861.193551" y="220.758224" style="fill: #ff7f0e; fill-opacity: 0.8; stroke: #ff7f0e; stroke-opacity: 0.8"/>
    </g>
   </g>
   <g id="matplotlib.axis_3">
    <g id="xtick_10">
     <g id="line2d_19">
      <g>
       <use xlink:href="#m345ea90eee" x="519.565045" y="269.636406" style="stroke: #000000; stroke-width: 0.8"/>
      </g>
     </g>
     <g id="text_23">
      <!-- 0 -->
      <g transform="translate(516.06567 284.994687) scale(0.11 -0.11)">
       <use xlink:href="#DejaVuSans-30"/>
      </g>
     </g>
    </g>
    <g id="xtick_11">
     <g id="line2d_20">
      <g>
       <use xlink:href="#m345ea90eee" x="602.676225" y="269.636406" style="stroke: #000000; stroke-width: 0.8"/>
      </g>
     </g>
     <g id="text_24">
      <!-- 2000 -->
      <g transform="translate(588.678725 284.994687) scale(0.11 -0.11)">
       <use xlink:href="#DejaVuSans-32"/>
       <use xlink:href="#DejaVuSans-30" x="63.623047"/>
       <use xlink:href="#DejaVuSans-30" x="127.246094"/>
       <use xlink:href="#DejaVuSans-30" x="190.869141"/>
      </g>
     </g>
    </g>
    <g id="xtick_12">
     <g id="line2d_21">
      <g>
       <use xlink:href="#m345ea90eee" x="685.787406" y="269.636406" style="stroke: #000000; stroke-width: 0.8"/>
      </g>
     </g>
     <g id="text_25">
      <!-- 4000 -->
      <g transform="translate(671.789906 284.994687) scale(0.11 -0.11)">
       <use xlink:href="#DejaVuSans-34"/>
       <use xlink:href="#DejaVuSans-30" x="63.623047"/>
       <use xlink:href="#DejaVuSans-30" x="127.246094"/>
       <use xlink:href="#DejaVuSans-30" x="190.869141"/>
      </g>
     </g>
    </g>
    <g id="xtick_13">
     <g id="line2d_22">
      <g>
       <use xlink:href="#m345ea90eee" x="768.898586" y="269.636406" style="stroke: #000000; stroke-width: 0.8"/>
      </g>
     </g>
     <g id="text_26">
      <!-- 6000 -->
      <g transform="translate(754.901086 284.994687) scale(0.11 -0.11)">
       <use xlink:href="#DejaVuSans-36"/>
       <use xlink:href="#DejaVuSans-30" x="63.623047"/>
       <use xlink:href="#DejaVuSans-30" x="127.246094"/>
       <use xlink:href="#DejaVuSans-30" x="190.869141"/>
      </g>
     </g>
    </g>
    <g id="xtick_14">
     <g id="line2d_23">
      <g>
       <use xlink:href="#m345ea90eee" x="852.009766" y="269.636406" style="stroke: #000000; stroke-width: 0.8"/>
      </g>
     </g>
     <g id="text_27">
      <!-- 8000 -->
      <g transform="translate(838.012266 284.994687) scale(0.11 -0.11)">
       <use xlink:href="#DejaVuSans-38"/>
       <use xlink:href="#DejaVuSans-30" x="63.623047"/>
       <use xlink:href="#DejaVuSans-30" x="127.246094"/>
       <use xlink:href="#DejaVuSans-30" x="190.869141"/>
      </g>
     </g>
    </g>
    <g id="text_28">
     <!-- Feature Size -->
     <g transform="translate(644.742734 302.68) scale(0.15 -0.15)">
      <use xlink:href="#DejaVuSans-46"/>
      <use xlink:href="#DejaVuSans-65" x="52.019531"/>
      <use xlink:href="#DejaVuSans-61" x="113.542969"/>
      <use xlink:href="#DejaVuSans-74" x="174.822266"/>
      <use xlink:href="#DejaVuSans-75" x="214.03125"/>
      <use xlink:href="#DejaVuSans-72" x="277.410156"/>
      <use xlink:href="#DejaVuSans-65" x="316.273438"/>
      <use xlink:href="#DejaVuSans-20" x="377.796875"/>
      <use xlink:href="#DejaVuSans-53" x="409.583984"/>
      <use xlink:href="#DejaVuSans-69" x="473.060547"/>
      <use xlink:href="#DejaVuSans-7a" x="500.84375"/>
      <use xlink:href="#DejaVuSans-65" x="553.333984"/>
     </g>
    </g>
   </g>
   <g id="matplotlib.axis_4">
    <g id="ytick_9">
     <g id="line2d_24">
      <g>
       <use xlink:href="#m05815b4f9b" x="503.487188" y="258.774588" style="stroke: #000000; stroke-width: 0.8"/>
      </g>
     </g>
     <g id="text_29">
      <!-- 25 -->
      <g transform="translate(481.217188 263.333651) scale(0.12 -0.12)">
       <use xlink:href="#DejaVuSans-32"/>
       <use xlink:href="#DejaVuSans-35" x="63.623047"/>
      </g>
     </g>
    </g>
    <g id="ytick_10">
     <g id="line2d_25">
      <g>
       <use xlink:href="#m05815b4f9b" x="503.487188" y="231.620043" style="stroke: #000000; stroke-width: 0.8"/>
      </g>
     </g>
     <g id="text_30">
      <!-- 30 -->
      <g transform="translate(481.217188 236.179105) scale(0.12 -0.12)">
       <use xlink:href="#DejaVuSans-33"/>
       <use xlink:href="#DejaVuSans-30" x="63.623047"/>
      </g>
     </g>
    </g>
    <g id="ytick_11">
     <g id="line2d_26">
      <g>
       <use xlink:href="#m05815b4f9b" x="503.487188" y="204.465497" style="stroke: #000000; stroke-width: 0.8"/>
      </g>
     </g>
     <g id="text_31">
      <!-- 35 -->
      <g transform="translate(481.217188 209.02456) scale(0.12 -0.12)">
       <use xlink:href="#DejaVuSans-33"/>
       <use xlink:href="#DejaVuSans-35" x="63.623047"/>
      </g>
     </g>
    </g>
    <g id="ytick_12">
     <g id="line2d_27">
      <g>
       <use xlink:href="#m05815b4f9b" x="503.487188" y="177.310952" style="stroke: #000000; stroke-width: 0.8"/>
      </g>
     </g>
     <g id="text_32">
      <!-- 40 -->
      <g transform="translate(481.217188 181.870014) scale(0.12 -0.12)">
       <use xlink:href="#DejaVuSans-34"/>
       <use xlink:href="#DejaVuSans-30" x="63.623047"/>
      </g>
     </g>
    </g>
    <g id="ytick_13">
     <g id="line2d_28">
      <g>
       <use xlink:href="#m05815b4f9b" x="503.487188" y="150.156406" style="stroke: #000000; stroke-width: 0.8"/>
      </g>
     </g>
     <g id="text_33">
      <!-- 45 -->
      <g transform="translate(481.217188 154.715469) scale(0.12 -0.12)">
       <use xlink:href="#DejaVuSans-34"/>
       <use xlink:href="#DejaVuSans-35" x="63.623047"/>
      </g>
     </g>
    </g>
    <g id="ytick_14">
     <g id="line2d_29">
      <g>
       <use xlink:href="#m05815b4f9b" x="503.487188" y="123.001861" style="stroke: #000000; stroke-width: 0.8"/>
      </g>
     </g>
     <g id="text_34">
      <!-- 50 -->
      <g transform="translate(481.217188 127.560923) scale(0.12 -0.12)">
       <use xlink:href="#DejaVuSans-35"/>
       <use xlink:href="#DejaVuSans-30" x="63.623047"/>
      </g>
     </g>
    </g>
    <g id="ytick_15">
     <g id="line2d_30">
      <g>
       <use xlink:href="#m05815b4f9b" x="503.487188" y="95.847315" style="stroke: #000000; stroke-width: 0.8"/>
      </g>
     </g>
     <g id="text_35">
      <!-- 55 -->
      <g transform="translate(481.217188 100.406378) scale(0.12 -0.12)">
       <use xlink:href="#DejaVuSans-35"/>
       <use xlink:href="#DejaVuSans-35" x="63.623047"/>
      </g>
     </g>
    </g>
    <g id="ytick_16">
     <g id="line2d_31">
      <g>
       <use xlink:href="#m05815b4f9b" x="503.487188" y="68.69277" style="stroke: #000000; stroke-width: 0.8"/>
      </g>
     </g>
     <g id="text_36">
      <!-- 60 -->
      <g transform="translate(481.217188 73.251832) scale(0.12 -0.12)">
       <use xlink:href="#DejaVuSans-36"/>
       <use xlink:href="#DejaVuSans-30" x="63.623047"/>
      </g>
     </g>
    </g>
    <g id="ytick_17">
     <g id="line2d_32">
      <g>
       <use xlink:href="#m05815b4f9b" x="503.487188" y="41.538224" style="stroke: #000000; stroke-width: 0.8"/>
      </g>
     </g>
     <g id="text_37">
      <!-- 65 -->
      <g transform="translate(481.217188 46.097287) scale(0.12 -0.12)">
       <use xlink:href="#DejaVuSans-36"/>
       <use xlink:href="#DejaVuSans-35" x="63.623047"/>
      </g>
     </g>
    </g>
    <g id="text_38">
     <!-- Num Interacting Commits -->
     <g transform="translate(474.097656 246.823203) rotate(-90) scale(0.15 -0.15)">
      <use xlink:href="#DejaVuSans-4e"/>
      <use xlink:href="#DejaVuSans-75" x="74.804688"/>
      <use xlink:href="#DejaVuSans-6d" x="138.183594"/>
      <use xlink:href="#DejaVuSans-20" x="235.595703"/>
      <use xlink:href="#DejaVuSans-49" x="267.382812"/>
      <use xlink:href="#DejaVuSans-6e" x="296.875"/>
      <use xlink:href="#DejaVuSans-74" x="360.253906"/>
      <use xlink:href="#DejaVuSans-65" x="399.462891"/>
      <use xlink:href="#DejaVuSans-72" x="460.986328"/>
      <use xlink:href="#DejaVuSans-61" x="502.099609"/>
      <use xlink:href="#DejaVuSans-63" x="563.378906"/>
      <use xlink:href="#DejaVuSans-74" x="618.359375"/>
      <use xlink:href="#DejaVuSans-69" x="657.568359"/>
      <use xlink:href="#DejaVuSans-6e" x="685.351562"/>
      <use xlink:href="#DejaVuSans-67" x="748.730469"/>
      <use xlink:href="#DejaVuSans-20" x="812.207031"/>
      <use xlink:href="#DejaVuSans-43" x="843.994141"/>
      <use xlink:href="#DejaVuSans-6f" x="913.818359"/>
      <use xlink:href="#DejaVuSans-6d" x="975"/>
      <use xlink:href="#DejaVuSans-6d" x="1072.412109"/>
      <use xlink:href="#DejaVuSans-69" x="1169.824219"/>
      <use xlink:href="#DejaVuSans-74" x="1197.607422"/>
      <use xlink:href="#DejaVuSans-73" x="1236.816406"/>
     </g>
    </g>
   </g>
   <g id="line2d_33">
    <path d="M 503.487188 77.382452 
L 507.27244 79.11677 
L 511.057693 80.851088 
L 514.842945 82.585406 
L 518.628198 84.319725 
L 522.41345 86.054043 
L 526.198703 87.788361 
L 529.983955 89.522679 
L 533.769208 91.256998 
L 537.55446 92.991316 
L 541.339713 94.725634 
L 545.124965 96.459953 
L 548.910218 98.194271 
L 552.69547 99.928589 
L 556.480723 101.662907 
L 560.265975 103.397226 
L 564.051228 105.131544 
L 567.83648 106.865862 
L 571.621733 108.600181 
L 575.406985 110.334499 
L 579.192238 112.068817 
L 582.977491 113.803135 
L 586.762743 115.537454 
L 590.547996 117.271772 
L 594.333248 119.00609 
L 598.118501 120.740408 
L 601.903753 122.474727 
L 605.689006 124.209045 
L 609.474258 125.943363 
L 613.259511 127.677682 
L 617.044763 129.412 
L 620.830016 131.146318 
L 624.615268 132.880636 
L 628.400521 134.614955 
L 632.185773 136.349273 
L 635.971026 138.083591 
L 639.756278 139.81791 
L 643.541531 141.552228 
L 647.326783 143.286546 
L 651.112036 145.020864 
L 654.897289 146.755183 
L 658.682541 148.489501 
L 662.467794 150.223819 
L 666.253046 151.958137 
L 670.038299 153.692456 
L 673.823551 155.426774 
L 677.608804 157.161092 
L 681.394056 158.895411 
L 685.179309 160.629729 
L 688.964561 162.364047 
L 692.749814 164.098365 
L 696.535066 165.832684 
L 700.320319 167.567002 
L 704.105571 169.30132 
L 707.890824 171.035638 
L 711.676076 172.769957 
L 715.461329 174.504275 
L 719.246581 176.238593 
L 723.031834 177.972912 
L 726.817086 179.70723 
L 730.602339 181.441548 
L 734.387592 183.175866 
L 738.172844 184.910185 
L 741.958097 186.644503 
L 745.743349 188.378821 
L 749.528602 190.11314 
L 753.313854 191.847458 
L 757.099107 193.581776 
L 760.884359 195.316094 
L 764.669612 197.050413 
L 768.454864 198.784731 
L 772.240117 200.519049 
L 776.025369 202.253367 
L 779.810622 203.987686 
L 783.595874 205.722004 
L 787.381127 207.456322 
L 791.166379 209.190641 
L 794.951632 210.924959 
L 798.736884 212.659277 
L 802.522137 214.393595 
L 806.30739 216.127914 
L 810.092642 217.862232 
L 813.877895 219.59655 
L 817.663147 221.330869 
L 821.4484 223.065187 
L 825.233652 224.799505 
L 829.018905 226.533823 
L 832.804157 228.268142 
L 836.58941 230.00246 
L 840.374662 231.736778 
L 844.159915 233.471096 
L 847.945167 235.205415 
L 851.73042 236.939733 
L 855.515672 238.674051 
L 859.300925 240.40837 
L 863.086177 242.142688 
L 866.87143 243.877006 
L 870.656682 245.611324 
L 874.441935 247.345643 
L 878.227187 249.079961 
" clip-path="url(#pdcd442f43f)" style="fill: none; stroke: #ff7f0e; stroke-width: 2; stroke-linecap: square"/>
   </g>
   <g id="patch_9">
    <path d="M 503.487188 269.636406 
L 503.487188 30.676406 
" style="fill: none; stroke: #000000; stroke-width: 0.8; stroke-linejoin: miter; stroke-linecap: square"/>
   </g>
   <g id="patch_10">
    <path d="M 878.227187 269.636406 
L 878.227187 30.676406 
" style="fill: none; stroke: #000000; stroke-width: 0.8; stroke-linejoin: miter; stroke-linecap: square"/>
   </g>
   <g id="patch_11">
    <path d="M 503.487188 269.636406 
L 878.227187 269.636406 
" style="fill: none; stroke: #000000; stroke-width: 0.8; stroke-linejoin: miter; stroke-linecap: square"/>
   </g>
   <g id="patch_12">
    <path d="M 503.487188 30.676406 
L 878.227187 30.676406 
" style="fill: none; stroke: #000000; stroke-width: 0.8; stroke-linejoin: miter; stroke-linecap: square"/>
   </g>
   <g id="text_39">
    <!-- corr=-0.772, p-value=0.002 -->
    <g style="fill: #ff7f0e" transform="translate(690.379298 52.128497) scale(0.125 -0.125)">
     <use xlink:href="#DejaVuSans-63"/>
     <use xlink:href="#DejaVuSans-6f" x="54.980469"/>
     <use xlink:href="#DejaVuSans-72" x="116.162109"/>
     <use xlink:href="#DejaVuSans-72" x="155.525391"/>
     <use xlink:href="#DejaVuSans-3d" x="196.638672"/>
     <use xlink:href="#DejaVuSans-2d" x="280.427734"/>
     <use xlink:href="#DejaVuSans-30" x="316.511719"/>
     <use xlink:href="#DejaVuSans-2e" x="380.134766"/>
     <use xlink:href="#DejaVuSans-37" x="411.921875"/>
     <use xlink:href="#DejaVuSans-37" x="475.544922"/>
     <use xlink:href="#DejaVuSans-32" x="539.167969"/>
     <use xlink:href="#DejaVuSans-2c" x="602.791016"/>
     <use xlink:href="#DejaVuSans-20" x="634.578125"/>
     <use xlink:href="#DejaVuSans-70" x="666.365234"/>
     <use xlink:href="#DejaVuSans-2d" x="729.841797"/>
     <use xlink:href="#DejaVuSans-76" x="763.300781"/>
     <use xlink:href="#DejaVuSans-61" x="822.480469"/>
     <use xlink:href="#DejaVuSans-6c" x="883.759766"/>
     <use xlink:href="#DejaVuSans-75" x="911.542969"/>
     <use xlink:href="#DejaVuSans-65" x="974.921875"/>
     <use xlink:href="#DejaVuSans-3d" x="1036.445312"/>
     <use xlink:href="#DejaVuSans-30" x="1120.234375"/>
     <use xlink:href="#DejaVuSans-2e" x="1183.857422"/>
     <use xlink:href="#DejaVuSans-30" x="1215.644531"/>
     <use xlink:href="#DejaVuSans-30" x="1279.267578"/>
     <use xlink:href="#DejaVuSans-32" x="1342.890625"/>
    </g>
   </g>
   <g id="text_40">
    <!-- gzip -->
    <g transform="translate(667.025234 24.676406) scale(0.23 -0.23)">
     <use xlink:href="#DejaVuSans-67"/>
     <use xlink:href="#DejaVuSans-7a" x="63.476562"/>
     <use xlink:href="#DejaVuSans-69" x="115.966797"/>
     <use xlink:href="#DejaVuSans-70" x="143.75"/>
    </g>
   </g>
  </g>
  <g id="axes_3">
   <g id="patch_13">
    <path d="M 958.987188 269.636406 
L 1333.727187 269.636406 
L 1333.727187 30.676406 
L 958.987188 30.676406 
z
" style="fill: #ffffff"/>
   </g>
   <g id="PathCollection_4">
    <g clip-path="url(#pc6cc52aa85)">
     <use xlink:href="#m83d1836cdd" x="976.020824" y="258.774588" style="fill: #ff7f0e; fill-opacity: 0.8; stroke: #ff7f0e; stroke-opacity: 0.8"/>
     <use xlink:href="#m83d1836cdd" x="987.020405" y="258.774588" style="fill: #ff7f0e; fill-opacity: 0.8; stroke: #ff7f0e; stroke-opacity: 0.8"/>
     <use xlink:href="#m83d1836cdd" x="1003.676912" y="128.43277" style="fill: #ff7f0e; fill-opacity: 0.8; stroke: #ff7f0e; stroke-opacity: 0.8"/>
     <use xlink:href="#m83d1836cdd" x="1009.019566" y="215.327315" style="fill: #ff7f0e; fill-opacity: 0.8; stroke: #ff7f0e; stroke-opacity: 0.8"/>
     <use xlink:href="#m83d1836cdd" x="1059.303363" y="41.538224" style="fill: #ff7f0e; fill-opacity: 0.8; stroke: #ff7f0e; stroke-opacity: 0.8"/>
     <use xlink:href="#m83d1836cdd" x="1097.016211" y="128.43277" style="fill: #ff7f0e; fill-opacity: 0.8; stroke: #ff7f0e; stroke-opacity: 0.8"/>
     <use xlink:href="#m83d1836cdd" x="1265.152659" y="258.774588" style="fill: #ff7f0e; fill-opacity: 0.8; stroke: #ff7f0e; stroke-opacity: 0.8"/>
     <use xlink:href="#m83d1836cdd" x="1316.693551" y="171.880043" style="fill: #ff7f0e; fill-opacity: 0.8; stroke: #ff7f0e; stroke-opacity: 0.8"/>
    </g>
   </g>
   <g id="matplotlib.axis_5">
    <g id="xtick_15">
     <g id="line2d_34">
      <g>
       <use xlink:href="#m345ea90eee" x="967.221159" y="269.636406" style="stroke: #000000; stroke-width: 0.8"/>
      </g>
     </g>
     <g id="text_41">
      <!-- 0 -->
      <g transform="translate(963.562722 285.374609) scale(0.115 -0.115)">
       <use xlink:href="#DejaVuSans-30"/>
      </g>
     </g>
    </g>
    <g id="xtick_16">
     <g id="line2d_35">
      <g>
       <use xlink:href="#m345ea90eee" x="1030.075906" y="269.636406" style="stroke: #000000; stroke-width: 0.8"/>
      </g>
     </g>
     <g id="text_42">
      <!-- 200 -->
      <g transform="translate(1019.100594 285.374609) scale(0.115 -0.115)">
       <use xlink:href="#DejaVuSans-32"/>
       <use xlink:href="#DejaVuSans-30" x="63.623047"/>
       <use xlink:href="#DejaVuSans-30" x="127.246094"/>
      </g>
     </g>
    </g>
    <g id="xtick_17">
     <g id="line2d_36">
      <g>
       <use xlink:href="#m345ea90eee" x="1092.930653" y="269.636406" style="stroke: #000000; stroke-width: 0.8"/>
      </g>
     </g>
     <g id="text_43">
      <!-- 400 -->
      <g transform="translate(1081.95534 285.374609) scale(0.115 -0.115)">
       <use xlink:href="#DejaVuSans-34"/>
       <use xlink:href="#DejaVuSans-30" x="63.623047"/>
       <use xlink:href="#DejaVuSans-30" x="127.246094"/>
      </g>
     </g>
    </g>
    <g id="xtick_18">
     <g id="line2d_37">
      <g>
       <use xlink:href="#m345ea90eee" x="1155.7854" y="269.636406" style="stroke: #000000; stroke-width: 0.8"/>
      </g>
     </g>
     <g id="text_44">
      <!-- 600 -->
      <g transform="translate(1144.810087 285.374609) scale(0.115 -0.115)">
       <use xlink:href="#DejaVuSans-36"/>
       <use xlink:href="#DejaVuSans-30" x="63.623047"/>
       <use xlink:href="#DejaVuSans-30" x="127.246094"/>
      </g>
     </g>
    </g>
    <g id="xtick_19">
     <g id="line2d_38">
      <g>
       <use xlink:href="#m345ea90eee" x="1218.640146" y="269.636406" style="stroke: #000000; stroke-width: 0.8"/>
      </g>
     </g>
     <g id="text_45">
      <!-- 800 -->
      <g transform="translate(1207.664834 285.374609) scale(0.115 -0.115)">
       <use xlink:href="#DejaVuSans-38"/>
       <use xlink:href="#DejaVuSans-30" x="63.623047"/>
       <use xlink:href="#DejaVuSans-30" x="127.246094"/>
      </g>
     </g>
    </g>
    <g id="xtick_20">
     <g id="line2d_39">
      <g>
       <use xlink:href="#m345ea90eee" x="1281.494893" y="269.636406" style="stroke: #000000; stroke-width: 0.8"/>
      </g>
     </g>
     <g id="text_46">
      <!-- 1000 -->
      <g transform="translate(1266.861143 285.374609) scale(0.115 -0.115)">
       <use xlink:href="#DejaVuSans-31"/>
       <use xlink:href="#DejaVuSans-30" x="63.623047"/>
       <use xlink:href="#DejaVuSans-30" x="127.246094"/>
       <use xlink:href="#DejaVuSans-30" x="190.869141"/>
      </g>
     </g>
    </g>
    <g id="text_47">
     <!-- Feature Size -->
     <g transform="translate(1100.242734 303.163906) scale(0.15 -0.15)">
      <use xlink:href="#DejaVuSans-46"/>
      <use xlink:href="#DejaVuSans-65" x="52.019531"/>
      <use xlink:href="#DejaVuSans-61" x="113.542969"/>
      <use xlink:href="#DejaVuSans-74" x="174.822266"/>
      <use xlink:href="#DejaVuSans-75" x="214.03125"/>
      <use xlink:href="#DejaVuSans-72" x="277.410156"/>
      <use xlink:href="#DejaVuSans-65" x="316.273438"/>
      <use xlink:href="#DejaVuSans-20" x="377.796875"/>
      <use xlink:href="#DejaVuSans-53" x="409.583984"/>
      <use xlink:href="#DejaVuSans-69" x="473.060547"/>
      <use xlink:href="#DejaVuSans-7a" x="500.84375"/>
      <use xlink:href="#DejaVuSans-65" x="553.333984"/>
     </g>
    </g>
   </g>
   <g id="matplotlib.axis_6">
    <g id="ytick_18">
     <g id="line2d_40">
      <g>
       <use xlink:href="#m05815b4f9b" x="958.987188" y="258.774588" style="stroke: #000000; stroke-width: 0.8"/>
      </g>
     </g>
     <g id="text_48">
      <!-- 1 -->
      <g transform="translate(944.352188 263.333651) scale(0.12 -0.12)">
       <use xlink:href="#DejaVuSans-31"/>
      </g>
     </g>
    </g>
    <g id="ytick_19">
     <g id="line2d_41">
      <g>
       <use xlink:href="#m05815b4f9b" x="958.987188" y="215.327315" style="stroke: #000000; stroke-width: 0.8"/>
      </g>
     </g>
     <g id="text_49">
      <!-- 2 -->
      <g transform="translate(944.352188 219.886378) scale(0.12 -0.12)">
       <use xlink:href="#DejaVuSans-32"/>
      </g>
     </g>
    </g>
    <g id="ytick_20">
     <g id="line2d_42">
      <g>
       <use xlink:href="#m05815b4f9b" x="958.987188" y="171.880043" style="stroke: #000000; stroke-width: 0.8"/>
      </g>
     </g>
     <g id="text_50">
      <!-- 3 -->
      <g transform="translate(944.352188 176.439105) scale(0.12 -0.12)">
       <use xlink:href="#DejaVuSans-33"/>
      </g>
     </g>
    </g>
    <g id="ytick_21">
     <g id="line2d_43">
      <g>
       <use xlink:href="#m05815b4f9b" x="958.987188" y="128.43277" style="stroke: #000000; stroke-width: 0.8"/>
      </g>
     </g>
     <g id="text_51">
      <!-- 4 -->
      <g transform="translate(944.352188 132.991832) scale(0.12 -0.12)">
       <use xlink:href="#DejaVuSans-34"/>
      </g>
     </g>
    </g>
    <g id="ytick_22">
     <g id="line2d_44">
      <g>
       <use xlink:href="#m05815b4f9b" x="958.987188" y="84.985497" style="stroke: #000000; stroke-width: 0.8"/>
      </g>
     </g>
     <g id="text_52">
      <!-- 5 -->
      <g transform="translate(944.352188 89.54456) scale(0.12 -0.12)">
       <use xlink:href="#DejaVuSans-35"/>
      </g>
     </g>
    </g>
    <g id="ytick_23">
     <g id="line2d_45">
      <g>
       <use xlink:href="#m05815b4f9b" x="958.987188" y="41.538224" style="stroke: #000000; stroke-width: 0.8"/>
      </g>
     </g>
     <g id="text_53">
      <!-- 6 -->
      <g transform="translate(944.352188 46.097287) scale(0.12 -0.12)">
       <use xlink:href="#DejaVuSans-36"/>
      </g>
     </g>
    </g>
    <g id="text_54">
     <!-- Num Interacting Commits -->
     <g transform="translate(937.232656 246.823203) rotate(-90) scale(0.15 -0.15)">
      <use xlink:href="#DejaVuSans-4e"/>
      <use xlink:href="#DejaVuSans-75" x="74.804688"/>
      <use xlink:href="#DejaVuSans-6d" x="138.183594"/>
      <use xlink:href="#DejaVuSans-20" x="235.595703"/>
      <use xlink:href="#DejaVuSans-49" x="267.382812"/>
      <use xlink:href="#DejaVuSans-6e" x="296.875"/>
      <use xlink:href="#DejaVuSans-74" x="360.253906"/>
      <use xlink:href="#DejaVuSans-65" x="399.462891"/>
      <use xlink:href="#DejaVuSans-72" x="460.986328"/>
      <use xlink:href="#DejaVuSans-61" x="502.099609"/>
      <use xlink:href="#DejaVuSans-63" x="563.378906"/>
      <use xlink:href="#DejaVuSans-74" x="618.359375"/>
      <use xlink:href="#DejaVuSans-69" x="657.568359"/>
      <use xlink:href="#DejaVuSans-6e" x="685.351562"/>
      <use xlink:href="#DejaVuSans-67" x="748.730469"/>
      <use xlink:href="#DejaVuSans-20" x="812.207031"/>
      <use xlink:href="#DejaVuSans-43" x="843.994141"/>
      <use xlink:href="#DejaVuSans-6f" x="913.818359"/>
      <use xlink:href="#DejaVuSans-6d" x="975"/>
      <use xlink:href="#DejaVuSans-6d" x="1072.412109"/>
      <use xlink:href="#DejaVuSans-69" x="1169.824219"/>
      <use xlink:href="#DejaVuSans-74" x="1197.607422"/>
      <use xlink:href="#DejaVuSans-73" x="1236.816406"/>
     </g>
    </g>
   </g>
   <g id="line2d_46">
    <path d="M 958.987188 182.351262 
L 962.77244 182.362614 
L 966.557693 182.373965 
L 970.342945 182.385316 
L 974.128198 182.396668 
L 977.91345 182.408019 
L 981.698703 182.41937 
L 985.483955 182.430721 
L 989.269208 182.442073 
L 993.05446 182.453424 
L 996.839713 182.464775 
L 1000.624965 182.476127 
L 1004.410218 182.487478 
L 1008.19547 182.498829 
L 1011.980723 182.51018 
L 1015.765975 182.521532 
L 1019.551228 182.532883 
L 1023.33648 182.544234 
L 1027.121733 182.555586 
L 1030.906985 182.566937 
L 1034.692238 182.578288 
L 1038.477491 182.589639 
L 1042.262743 182.600991 
L 1046.047996 182.612342 
L 1049.833248 182.623693 
L 1053.618501 182.635045 
L 1057.403753 182.646396 
L 1061.189006 182.657747 
L 1064.974258 182.669098 
L 1068.759511 182.68045 
L 1072.544763 182.691801 
L 1076.330016 182.703152 
L 1080.115268 182.714504 
L 1083.900521 182.725855 
L 1087.685773 182.737206 
L 1091.471026 182.748557 
L 1095.256278 182.759909 
L 1099.041531 182.77126 
L 1102.826783 182.782611 
L 1106.612036 182.793963 
L 1110.397289 182.805314 
L 1114.182541 182.816665 
L 1117.967794 182.828016 
L 1121.753046 182.839368 
L 1125.538299 182.850719 
L 1129.323551 182.86207 
L 1133.108804 182.873422 
L 1136.894056 182.884773 
L 1140.679309 182.896124 
L 1144.464561 182.907475 
L 1148.249814 182.918827 
L 1152.035066 182.930178 
L 1155.820319 182.941529 
L 1159.605571 182.952881 
L 1163.390824 182.964232 
L 1167.176076 182.975583 
L 1170.961329 182.986934 
L 1174.746581 182.998286 
L 1178.531834 183.009637 
L 1182.317086 183.020988 
L 1186.102339 183.03234 
L 1189.887592 183.043691 
L 1193.672844 183.055042 
L 1197.458097 183.066393 
L 1201.243349 183.077745 
L 1205.028602 183.089096 
L 1208.813854 183.100447 
L 1212.599107 183.111799 
L 1216.384359 183.12315 
L 1220.169612 183.134501 
L 1223.954864 183.145852 
L 1227.740117 183.157204 
L 1231.525369 183.168555 
L 1235.310622 183.179906 
L 1239.095874 183.191258 
L 1242.881127 183.202609 
L 1246.666379 183.21396 
L 1250.451632 183.225311 
L 1254.236884 183.236663 
L 1258.022137 183.248014 
L 1261.80739 183.259365 
L 1265.592642 183.270716 
L 1269.377895 183.282068 
L 1273.163147 183.293419 
L 1276.9484 183.30477 
L 1280.733652 183.316122 
L 1284.518905 183.327473 
L 1288.304157 183.338824 
L 1292.08941 183.350175 
L 1295.874662 183.361527 
L 1299.659915 183.372878 
L 1303.445167 183.384229 
L 1307.23042 183.395581 
L 1311.015672 183.406932 
L 1314.800925 183.418283 
L 1318.586177 183.429634 
L 1322.37143 183.440986 
L 1326.156682 183.452337 
L 1329.941935 183.463688 
L 1333.727187 183.47504 
" clip-path="url(#pc6cc52aa85)" style="fill: none; stroke: #ff7f0e; stroke-width: 2; stroke-linecap: square"/>
   </g>
   <g id="patch_14">
    <path d="M 958.987188 269.636406 
L 958.987188 30.676406 
" style="fill: none; stroke: #000000; stroke-width: 0.8; stroke-linejoin: miter; stroke-linecap: square"/>
   </g>
   <g id="patch_15">
    <path d="M 1333.727187 269.636406 
L 1333.727187 30.676406 
" style="fill: none; stroke: #000000; stroke-width: 0.8; stroke-linejoin: miter; stroke-linecap: square"/>
   </g>
   <g id="patch_16">
    <path d="M 958.987188 269.636406 
L 1333.727187 269.636406 
" style="fill: none; stroke: #000000; stroke-width: 0.8; stroke-linejoin: miter; stroke-linecap: square"/>
   </g>
   <g id="patch_17">
    <path d="M 958.987188 30.676406 
L 1333.727187 30.676406 
" style="fill: none; stroke: #000000; stroke-width: 0.8; stroke-linejoin: miter; stroke-linecap: square"/>
   </g>
   <g id="text_55">
    <!-- corr=-0.005, p-value=0.991 -->
    <g style="fill: #ff7f0e" transform="translate(1141.957355 49.358734) scale(0.125 -0.125)">
     <defs>
      <path id="DejaVuSans-39" d="M 703 97 
L 703 672 
Q 941 559 1184 500 
Q 1428 441 1663 441 
Q 2288 441 2617 861 
Q 2947 1281 2994 2138 
Q 2813 1869 2534 1725 
Q 2256 1581 1919 1581 
Q 1219 1581 811 2004 
Q 403 2428 403 3163 
Q 403 3881 828 4315 
Q 1253 4750 1959 4750 
Q 2769 4750 3195 4129 
Q 3622 3509 3622 2328 
Q 3622 1225 3098 567 
Q 2575 -91 1691 -91 
Q 1453 -91 1209 -44 
Q 966 3 703 97 
z
M 1959 2075 
Q 2384 2075 2632 2365 
Q 2881 2656 2881 3163 
Q 2881 3666 2632 3958 
Q 2384 4250 1959 4250 
Q 1534 4250 1286 3958 
Q 1038 3666 1038 3163 
Q 1038 2656 1286 2365 
Q 1534 2075 1959 2075 
z
" transform="scale(0.015625)"/>
     </defs>
     <use xlink:href="#DejaVuSans-63"/>
     <use xlink:href="#DejaVuSans-6f" x="54.980469"/>
     <use xlink:href="#DejaVuSans-72" x="116.162109"/>
     <use xlink:href="#DejaVuSans-72" x="155.525391"/>
     <use xlink:href="#DejaVuSans-3d" x="196.638672"/>
     <use xlink:href="#DejaVuSans-2d" x="280.427734"/>
     <use xlink:href="#DejaVuSans-30" x="316.511719"/>
     <use xlink:href="#DejaVuSans-2e" x="380.134766"/>
     <use xlink:href="#DejaVuSans-30" x="411.921875"/>
     <use xlink:href="#DejaVuSans-30" x="475.544922"/>
     <use xlink:href="#DejaVuSans-35" x="539.167969"/>
     <use xlink:href="#DejaVuSans-2c" x="602.791016"/>
     <use xlink:href="#DejaVuSans-20" x="634.578125"/>
     <use xlink:href="#DejaVuSans-70" x="666.365234"/>
     <use xlink:href="#DejaVuSans-2d" x="729.841797"/>
     <use xlink:href="#DejaVuSans-76" x="763.300781"/>
     <use xlink:href="#DejaVuSans-61" x="822.480469"/>
     <use xlink:href="#DejaVuSans-6c" x="883.759766"/>
     <use xlink:href="#DejaVuSans-75" x="911.542969"/>
     <use xlink:href="#DejaVuSans-65" x="974.921875"/>
     <use xlink:href="#DejaVuSans-3d" x="1036.445312"/>
     <use xlink:href="#DejaVuSans-30" x="1120.234375"/>
     <use xlink:href="#DejaVuSans-2e" x="1183.857422"/>
     <use xlink:href="#DejaVuSans-39" x="1215.644531"/>
     <use xlink:href="#DejaVuSans-39" x="1279.267578"/>
     <use xlink:href="#DejaVuSans-31" x="1342.890625"/>
    </g>
   </g>
   <g id="text_56">
    <!-- bzip2 -->
    <g transform="translate(1115.208359 24.676406) scale(0.23 -0.23)">
     <defs>
      <path id="DejaVuSans-62" d="M 3116 1747 
Q 3116 2381 2855 2742 
Q 2594 3103 2138 3103 
Q 1681 3103 1420 2742 
Q 1159 2381 1159 1747 
Q 1159 1113 1420 752 
Q 1681 391 2138 391 
Q 2594 391 2855 752 
Q 3116 1113 3116 1747 
z
M 1159 2969 
Q 1341 3281 1617 3432 
Q 1894 3584 2278 3584 
Q 2916 3584 3314 3078 
Q 3713 2572 3713 1747 
Q 3713 922 3314 415 
Q 2916 -91 2278 -91 
Q 1894 -91 1617 61 
Q 1341 213 1159 525 
L 1159 0 
L 581 0 
L 581 4863 
L 1159 4863 
L 1159 2969 
z
" transform="scale(0.015625)"/>
     </defs>
     <use xlink:href="#DejaVuSans-62"/>
     <use xlink:href="#DejaVuSans-7a" x="63.476562"/>
     <use xlink:href="#DejaVuSans-69" x="115.966797"/>
     <use xlink:href="#DejaVuSans-70" x="143.75"/>
     <use xlink:href="#DejaVuSans-32" x="207.226562"/>
    </g>
   </g>
  </g>
  <g id="axes_4">
   <g id="patch_18">
    <path d="M 1414.487188 269.636406 
L 1789.227188 269.636406 
L 1789.227188 30.676406 
L 1414.487188 30.676406 
z
" style="fill: #ffffff"/>
   </g>
   <g id="PathCollection_5">
    <g clip-path="url(#paa6e01964d)">
     <use xlink:href="#m83d1836cdd" x="1431.520824" y="258.774588" style="fill: #ff7f0e; fill-opacity: 0.8; stroke: #ff7f0e; stroke-opacity: 0.8"/>
     <use xlink:href="#m83d1836cdd" x="1742.134193" y="41.538224" style="fill: #ff7f0e; fill-opacity: 0.8; stroke: #ff7f0e; stroke-opacity: 0.8"/>
     <use xlink:href="#m83d1836cdd" x="1772.193551" y="227.740822" style="fill: #ff7f0e; fill-opacity: 0.8; stroke: #ff7f0e; stroke-opacity: 0.8"/>
    </g>
   </g>
   <g id="matplotlib.axis_7">
    <g id="xtick_21">
     <g id="line2d_47">
      <g>
       <use xlink:href="#m345ea90eee" x="1458.847513" y="269.636406" style="stroke: #000000; stroke-width: 0.8"/>
      </g>
     </g>
     <g id="text_57">
      <!-- 50 -->
      <g transform="translate(1451.530638 285.374609) scale(0.115 -0.115)">
       <use xlink:href="#DejaVuSans-35"/>
       <use xlink:href="#DejaVuSans-30" x="63.623047"/>
      </g>
     </g>
    </g>
    <g id="xtick_22">
     <g id="line2d_48">
      <g>
       <use xlink:href="#m345ea90eee" x="1504.391995" y="269.636406" style="stroke: #000000; stroke-width: 0.8"/>
      </g>
     </g>
     <g id="text_58">
      <!-- 100 -->
      <g transform="translate(1493.416683 285.374609) scale(0.115 -0.115)">
       <use xlink:href="#DejaVuSans-31"/>
       <use xlink:href="#DejaVuSans-30" x="63.623047"/>
       <use xlink:href="#DejaVuSans-30" x="127.246094"/>
      </g>
     </g>
    </g>
    <g id="xtick_23">
     <g id="line2d_49">
      <g>
       <use xlink:href="#m345ea90eee" x="1549.936478" y="269.636406" style="stroke: #000000; stroke-width: 0.8"/>
      </g>
     </g>
     <g id="text_59">
      <!-- 150 -->
      <g transform="translate(1538.961165 285.374609) scale(0.115 -0.115)">
       <use xlink:href="#DejaVuSans-31"/>
       <use xlink:href="#DejaVuSans-35" x="63.623047"/>
       <use xlink:href="#DejaVuSans-30" x="127.246094"/>
      </g>
     </g>
    </g>
    <g id="xtick_24">
     <g id="line2d_50">
      <g>
       <use xlink:href="#m345ea90eee" x="1595.48096" y="269.636406" style="stroke: #000000; stroke-width: 0.8"/>
      </g>
     </g>
     <g id="text_60">
      <!-- 200 -->
      <g transform="translate(1584.505647 285.374609) scale(0.115 -0.115)">
       <use xlink:href="#DejaVuSans-32"/>
       <use xlink:href="#DejaVuSans-30" x="63.623047"/>
       <use xlink:href="#DejaVuSans-30" x="127.246094"/>
      </g>
     </g>
    </g>
    <g id="xtick_25">
     <g id="line2d_51">
      <g>
       <use xlink:href="#m345ea90eee" x="1641.025442" y="269.636406" style="stroke: #000000; stroke-width: 0.8"/>
      </g>
     </g>
     <g id="text_61">
      <!-- 250 -->
      <g transform="translate(1630.05013 285.374609) scale(0.115 -0.115)">
       <use xlink:href="#DejaVuSans-32"/>
       <use xlink:href="#DejaVuSans-35" x="63.623047"/>
       <use xlink:href="#DejaVuSans-30" x="127.246094"/>
      </g>
     </g>
    </g>
    <g id="xtick_26">
     <g id="line2d_52">
      <g>
       <use xlink:href="#m345ea90eee" x="1686.569924" y="269.636406" style="stroke: #000000; stroke-width: 0.8"/>
      </g>
     </g>
     <g id="text_62">
      <!-- 300 -->
      <g transform="translate(1675.594612 285.374609) scale(0.115 -0.115)">
       <use xlink:href="#DejaVuSans-33"/>
       <use xlink:href="#DejaVuSans-30" x="63.623047"/>
       <use xlink:href="#DejaVuSans-30" x="127.246094"/>
      </g>
     </g>
    </g>
    <g id="xtick_27">
     <g id="line2d_53">
      <g>
       <use xlink:href="#m345ea90eee" x="1732.114407" y="269.636406" style="stroke: #000000; stroke-width: 0.8"/>
      </g>
     </g>
     <g id="text_63">
      <!-- 350 -->
      <g transform="translate(1721.139094 285.374609) scale(0.115 -0.115)">
       <use xlink:href="#DejaVuSans-33"/>
       <use xlink:href="#DejaVuSans-35" x="63.623047"/>
       <use xlink:href="#DejaVuSans-30" x="127.246094"/>
      </g>
     </g>
    </g>
    <g id="xtick_28">
     <g id="line2d_54">
      <g>
       <use xlink:href="#m345ea90eee" x="1777.658889" y="269.636406" style="stroke: #000000; stroke-width: 0.8"/>
      </g>
     </g>
     <g id="text_64">
      <!-- 400 -->
      <g transform="translate(1766.683577 285.374609) scale(0.115 -0.115)">
       <use xlink:href="#DejaVuSans-34"/>
       <use xlink:href="#DejaVuSans-30" x="63.623047"/>
       <use xlink:href="#DejaVuSans-30" x="127.246094"/>
      </g>
     </g>
    </g>
    <g id="text_65">
     <!-- Feature Size -->
     <g transform="translate(1555.742734 303.163906) scale(0.15 -0.15)">
      <use xlink:href="#DejaVuSans-46"/>
      <use xlink:href="#DejaVuSans-65" x="52.019531"/>
      <use xlink:href="#DejaVuSans-61" x="113.542969"/>
      <use xlink:href="#DejaVuSans-74" x="174.822266"/>
      <use xlink:href="#DejaVuSans-75" x="214.03125"/>
      <use xlink:href="#DejaVuSans-72" x="277.410156"/>
      <use xlink:href="#DejaVuSans-65" x="316.273438"/>
      <use xlink:href="#DejaVuSans-20" x="377.796875"/>
      <use xlink:href="#DejaVuSans-53" x="409.583984"/>
      <use xlink:href="#DejaVuSans-69" x="473.060547"/>
      <use xlink:href="#DejaVuSans-7a" x="500.84375"/>
      <use xlink:href="#DejaVuSans-65" x="553.333984"/>
     </g>
    </g>
   </g>
   <g id="matplotlib.axis_8">
    <g id="ytick_24">
     <g id="line2d_55">
      <g>
       <use xlink:href="#m05815b4f9b" x="1414.487188" y="258.774588" style="stroke: #000000; stroke-width: 0.8"/>
      </g>
     </g>
     <g id="text_66">
      <!-- 16 -->
      <g transform="translate(1392.217188 263.333651) scale(0.12 -0.12)">
       <use xlink:href="#DejaVuSans-31"/>
       <use xlink:href="#DejaVuSans-36" x="63.623047"/>
      </g>
     </g>
    </g>
    <g id="ytick_25">
     <g id="line2d_56">
      <g>
       <use xlink:href="#m05815b4f9b" x="1414.487188" y="227.740822" style="stroke: #000000; stroke-width: 0.8"/>
      </g>
     </g>
     <g id="text_67">
      <!-- 17 -->
      <g transform="translate(1392.217188 232.299884) scale(0.12 -0.12)">
       <use xlink:href="#DejaVuSans-31"/>
       <use xlink:href="#DejaVuSans-37" x="63.623047"/>
      </g>
     </g>
    </g>
    <g id="ytick_26">
     <g id="line2d_57">
      <g>
       <use xlink:href="#m05815b4f9b" x="1414.487188" y="196.707056" style="stroke: #000000; stroke-width: 0.8"/>
      </g>
     </g>
     <g id="text_68">
      <!-- 18 -->
      <g transform="translate(1392.217188 201.266118) scale(0.12 -0.12)">
       <use xlink:href="#DejaVuSans-31"/>
       <use xlink:href="#DejaVuSans-38" x="63.623047"/>
      </g>
     </g>
    </g>
    <g id="ytick_27">
     <g id="line2d_58">
      <g>
       <use xlink:href="#m05815b4f9b" x="1414.487188" y="165.673289" style="stroke: #000000; stroke-width: 0.8"/>
      </g>
     </g>
     <g id="text_69">
      <!-- 19 -->
      <g transform="translate(1392.217188 170.232352) scale(0.12 -0.12)">
       <use xlink:href="#DejaVuSans-31"/>
       <use xlink:href="#DejaVuSans-39" x="63.623047"/>
      </g>
     </g>
    </g>
    <g id="ytick_28">
     <g id="line2d_59">
      <g>
       <use xlink:href="#m05815b4f9b" x="1414.487188" y="134.639523" style="stroke: #000000; stroke-width: 0.8"/>
      </g>
     </g>
     <g id="text_70">
      <!-- 20 -->
      <g transform="translate(1392.217188 139.198586) scale(0.12 -0.12)">
       <use xlink:href="#DejaVuSans-32"/>
       <use xlink:href="#DejaVuSans-30" x="63.623047"/>
      </g>
     </g>
    </g>
    <g id="ytick_29">
     <g id="line2d_60">
      <g>
       <use xlink:href="#m05815b4f9b" x="1414.487188" y="103.605757" style="stroke: #000000; stroke-width: 0.8"/>
      </g>
     </g>
     <g id="text_71">
      <!-- 21 -->
      <g transform="translate(1392.217188 108.164819) scale(0.12 -0.12)">
       <use xlink:href="#DejaVuSans-32"/>
       <use xlink:href="#DejaVuSans-31" x="63.623047"/>
      </g>
     </g>
    </g>
    <g id="ytick_30">
     <g id="line2d_61">
      <g>
       <use xlink:href="#m05815b4f9b" x="1414.487188" y="72.571991" style="stroke: #000000; stroke-width: 0.8"/>
      </g>
     </g>
     <g id="text_72">
      <!-- 22 -->
      <g transform="translate(1392.217188 77.131053) scale(0.12 -0.12)">
       <use xlink:href="#DejaVuSans-32"/>
       <use xlink:href="#DejaVuSans-32" x="63.623047"/>
      </g>
     </g>
    </g>
    <g id="ytick_31">
     <g id="line2d_62">
      <g>
       <use xlink:href="#m05815b4f9b" x="1414.487188" y="41.538224" style="stroke: #000000; stroke-width: 0.8"/>
      </g>
     </g>
     <g id="text_73">
      <!-- 23 -->
      <g transform="translate(1392.217188 46.097287) scale(0.12 -0.12)">
       <use xlink:href="#DejaVuSans-32"/>
       <use xlink:href="#DejaVuSans-33" x="63.623047"/>
      </g>
     </g>
    </g>
    <g id="text_74">
     <!-- Num Interacting Commits -->
     <g transform="translate(1385.097656 246.823203) rotate(-90) scale(0.15 -0.15)">
      <use xlink:href="#DejaVuSans-4e"/>
      <use xlink:href="#DejaVuSans-75" x="74.804688"/>
      <use xlink:href="#DejaVuSans-6d" x="138.183594"/>
      <use xlink:href="#DejaVuSans-20" x="235.595703"/>
      <use xlink:href="#DejaVuSans-49" x="267.382812"/>
      <use xlink:href="#DejaVuSans-6e" x="296.875"/>
      <use xlink:href="#DejaVuSans-74" x="360.253906"/>
      <use xlink:href="#DejaVuSans-65" x="399.462891"/>
      <use xlink:href="#DejaVuSans-72" x="460.986328"/>
      <use xlink:href="#DejaVuSans-61" x="502.099609"/>
      <use xlink:href="#DejaVuSans-63" x="563.378906"/>
      <use xlink:href="#DejaVuSans-74" x="618.359375"/>
      <use xlink:href="#DejaVuSans-69" x="657.568359"/>
      <use xlink:href="#DejaVuSans-6e" x="685.351562"/>
      <use xlink:href="#DejaVuSans-67" x="748.730469"/>
      <use xlink:href="#DejaVuSans-20" x="812.207031"/>
      <use xlink:href="#DejaVuSans-43" x="843.994141"/>
      <use xlink:href="#DejaVuSans-6f" x="913.818359"/>
      <use xlink:href="#DejaVuSans-6d" x="975"/>
      <use xlink:href="#DejaVuSans-6d" x="1072.412109"/>
      <use xlink:href="#DejaVuSans-69" x="1169.824219"/>
      <use xlink:href="#DejaVuSans-74" x="1197.607422"/>
      <use xlink:href="#DejaVuSans-73" x="1236.816406"/>
     </g>
    </g>
   </g>
   <g id="line2d_63">
    <path d="M 1414.487188 255.491665 
L 1418.27244 254.206782 
L 1422.057693 252.921899 
L 1425.842945 251.637016 
L 1429.628198 250.352134 
L 1433.41345 249.067251 
L 1437.198703 247.782368 
L 1440.983955 246.497485 
L 1444.769208 245.212602 
L 1448.55446 243.927719 
L 1452.339713 242.642836 
L 1456.124965 241.357953 
L 1459.910218 240.07307 
L 1463.69547 238.788187 
L 1467.480723 237.503304 
L 1471.265975 236.218422 
L 1475.051228 234.933539 
L 1478.83648 233.648656 
L 1482.621733 232.363773 
L 1486.406985 231.07889 
L 1490.192238 229.794007 
L 1493.977491 228.509124 
L 1497.762743 227.224241 
L 1501.547996 225.939358 
L 1505.333248 224.654475 
L 1509.118501 223.369592 
L 1512.903753 222.08471 
L 1516.689006 220.799827 
L 1520.474258 219.514944 
L 1524.259511 218.230061 
L 1528.044763 216.945178 
L 1531.830016 215.660295 
L 1535.615268 214.375412 
L 1539.400521 213.090529 
L 1543.185773 211.805646 
L 1546.971026 210.520763 
L 1550.756278 209.23588 
L 1554.541531 207.950998 
L 1558.326783 206.666115 
L 1562.112036 205.381232 
L 1565.897289 204.096349 
L 1569.682541 202.811466 
L 1573.467794 201.526583 
L 1577.253046 200.2417 
L 1581.038299 198.956817 
L 1584.823551 197.671934 
L 1588.608804 196.387051 
L 1592.394056 195.102168 
L 1596.179309 193.817285 
L 1599.964561 192.532403 
L 1603.749814 191.24752 
L 1607.535066 189.962637 
L 1611.320319 188.677754 
L 1615.105571 187.392871 
L 1618.890824 186.107988 
L 1622.676076 184.823105 
L 1626.461329 183.538222 
L 1630.246581 182.253339 
L 1634.031834 180.968456 
L 1637.817086 179.683573 
L 1641.602339 178.398691 
L 1645.387592 177.113808 
L 1649.172844 175.828925 
L 1652.958097 174.544042 
L 1656.743349 173.259159 
L 1660.528602 171.974276 
L 1664.313854 170.689393 
L 1668.099107 169.40451 
L 1671.884359 168.119627 
L 1675.669612 166.834744 
L 1679.454864 165.549861 
L 1683.240117 164.264979 
L 1687.025369 162.980096 
L 1690.810622 161.695213 
L 1694.595874 160.41033 
L 1698.381127 159.125447 
L 1702.166379 157.840564 
L 1705.951632 156.555681 
L 1709.736884 155.270798 
L 1713.522137 153.985915 
L 1717.30739 152.701032 
L 1721.092642 151.416149 
L 1724.877895 150.131267 
L 1728.663147 148.846384 
L 1732.4484 147.561501 
L 1736.233652 146.276618 
L 1740.018905 144.991735 
L 1743.804157 143.706852 
L 1747.58941 142.421969 
L 1751.374662 141.137086 
L 1755.159915 139.852203 
L 1758.945167 138.56732 
L 1762.73042 137.282437 
L 1766.515672 135.997555 
L 1770.300925 134.712672 
L 1774.086177 133.427789 
L 1777.87143 132.142906 
L 1781.656682 130.858023 
L 1785.441935 129.57314 
L 1789.227188 128.288257 
" clip-path="url(#paa6e01964d)" style="fill: none; stroke: #ff7f0e; stroke-width: 2; stroke-linecap: square"/>
   </g>
   <g id="patch_19">
    <path d="M 1414.487188 269.636406 
L 1414.487188 30.676406 
" style="fill: none; stroke: #000000; stroke-width: 0.8; stroke-linejoin: miter; stroke-linecap: square"/>
   </g>
   <g id="patch_20">
    <path d="M 1789.227188 269.636406 
L 1789.227188 30.676406 
" style="fill: none; stroke: #000000; stroke-width: 0.8; stroke-linejoin: miter; stroke-linecap: square"/>
   </g>
   <g id="patch_21">
    <path d="M 1414.487188 269.636406 
L 1789.227188 269.636406 
" style="fill: none; stroke: #000000; stroke-width: 0.8; stroke-linejoin: miter; stroke-linecap: square"/>
   </g>
   <g id="patch_22">
    <path d="M 1414.487188 30.676406 
L 1789.227188 30.676406 
" style="fill: none; stroke: #000000; stroke-width: 0.8; stroke-linejoin: miter; stroke-linecap: square"/>
   </g>
   <g id="text_75">
    <!-- corr=0.545, p-value=0.633 -->
    <g style="fill: #ff7f0e" transform="translate(1424.069747 48.675991) scale(0.125 -0.125)">
     <use xlink:href="#DejaVuSans-63"/>
     <use xlink:href="#DejaVuSans-6f" x="54.980469"/>
     <use xlink:href="#DejaVuSans-72" x="116.162109"/>
     <use xlink:href="#DejaVuSans-72" x="155.525391"/>
     <use xlink:href="#DejaVuSans-3d" x="196.638672"/>
     <use xlink:href="#DejaVuSans-30" x="280.427734"/>
     <use xlink:href="#DejaVuSans-2e" x="344.050781"/>
     <use xlink:href="#DejaVuSans-35" x="375.837891"/>
     <use xlink:href="#DejaVuSans-34" x="439.460938"/>
     <use xlink:href="#DejaVuSans-35" x="503.083984"/>
     <use xlink:href="#DejaVuSans-2c" x="566.707031"/>
     <use xlink:href="#DejaVuSans-20" x="598.494141"/>
     <use xlink:href="#DejaVuSans-70" x="630.28125"/>
     <use xlink:href="#DejaVuSans-2d" x="693.757812"/>
     <use xlink:href="#DejaVuSans-76" x="727.216797"/>
     <use xlink:href="#DejaVuSans-61" x="786.396484"/>
     <use xlink:href="#DejaVuSans-6c" x="847.675781"/>
     <use xlink:href="#DejaVuSans-75" x="875.458984"/>
     <use xlink:href="#DejaVuSans-65" x="938.837891"/>
     <use xlink:href="#DejaVuSans-3d" x="1000.361328"/>
     <use xlink:href="#DejaVuSans-30" x="1084.150391"/>
     <use xlink:href="#DejaVuSans-2e" x="1147.773438"/>
     <use xlink:href="#DejaVuSans-36" x="1179.560547"/>
     <use xlink:href="#DejaVuSans-33" x="1243.183594"/>
     <use xlink:href="#DejaVuSans-33" x="1306.806641"/>
    </g>
   </g>
   <g id="text_76">
    <!-- lrzip -->
    <g transform="translate(1577.403516 24.676406) scale(0.23 -0.23)">
     <use xlink:href="#DejaVuSans-6c"/>
     <use xlink:href="#DejaVuSans-72" x="27.783203"/>
     <use xlink:href="#DejaVuSans-7a" x="68.896484"/>
     <use xlink:href="#DejaVuSans-69" x="121.386719"/>
     <use xlink:href="#DejaVuSans-70" x="149.169922"/>
    </g>
   </g>
  </g>
 </g>
 <defs>
  <clipPath id="p999a0be0f6">
   <rect x="47.987188" y="30.676406" width="374.74" height="238.96"/>
  </clipPath>
  <clipPath id="pdcd442f43f">
   <rect x="503.487188" y="30.676406" width="374.74" height="238.96"/>
  </clipPath>
  <clipPath id="pc6cc52aa85">
   <rect x="958.987188" y="30.676406" width="374.74" height="238.96"/>
  </clipPath>
  <clipPath id="paa6e01964d">
   <rect x="1414.487188" y="30.676406" width="374.74" height="238.96"/>
  </clipPath>
 </defs>
</svg>
